<svg xmlns="http://www.w3.org/2000/svg" width="70" height="80" viewBox="0 0 70 80" fill="none">
<path d="M47.2349 32.9413C47.2349 38.7551 41.7336 43.706 34.632 43.706C27.5304 43.706 22.0291 38.7551 22.0291 32.9413C22.0291 27.1274 27.5304 22.1766 34.632 22.1766C41.7336 22.1766 47.2349 27.1274 47.2349 32.9413Z" stroke="black" stroke-width="2"/>
<path d="M59.8497 43.3528H61.7242L60.6802 41.7959C60.3172 41.2545 60.1176 40.643 60.1176 39.9999C60.1176 38.0887 61.9696 36.294 64.5588 36.294C67.1482 36.294 69 38.0887 69 39.9999C69 40.6468 68.7981 41.2622 68.431 41.8056L68.3731 41.8913L68.334 41.9871L67.0571 45.1116C64.8806 50.4376 61.0245 55.0738 55.8375 58.576L55.3971 58.8733V59.4048V78.9999H13.8677V59.4048V58.8734L13.4273 58.576C8.24043 55.0738 4.3845 50.4376 2.2078 45.1116L1.29476 45.4848L2.2078 45.1116L1.48899 43.3528H16.8194L17.3081 44.0833L17.3081 44.0833C20.9156 49.4752 27.5671 52.7646 34.6324 52.7646C41.6978 52.7646 48.3491 49.4752 51.9566 44.0833L52.4454 43.3528H59.8497Z" stroke="black" stroke-width="2"/>
<path d="M39.0733 4.70588C39.0733 6.62124 37.2261 8.41177 34.6321 8.41177C32.0381 8.41177 30.1909 6.62123 30.1909 4.70588C30.1909 2.79053 32.0381 1 34.6321 1C37.2261 1 39.0733 2.79053 39.0733 4.70588Z" stroke="black" stroke-width="2"/>
<path d="M63.5594 18.8235C63.5594 20.7388 61.7122 22.5294 59.1182 22.5294C56.5242 22.5294 54.677 20.7388 54.677 18.8235C54.677 16.9081 56.5242 15.1176 59.1182 15.1176C61.7122 15.1176 63.5594 16.9081 63.5594 18.8235Z" stroke="black" stroke-width="2"/>
<path d="M14.5879 14.1176C14.5879 16.033 12.7407 17.8235 10.1467 17.8235C7.55274 17.8235 5.70557 16.033 5.70557 14.1176C5.70557 12.2023 7.55274 10.4117 10.1467 10.4117C12.7407 10.4117 14.5879 12.2023 14.5879 14.1176Z" stroke="black" stroke-width="2"/>
</svg>