<svg width="20" height="20" viewBox="0 0 20 20" fill="none" xmlns="http://www.w3.org/2000/svg"><path d="M10.0026 6.52018C10.1137 6.52018 10.2215 6.54102 10.3259 6.58268C10.4304 6.62435 10.517 6.6799 10.5859 6.74935L14.4193 10.5827C14.572 10.7355 14.6484 10.9299 14.6484 11.166C14.6484 11.4021 14.572 11.5966 14.4193 11.7493C14.2665 11.9021 14.072 11.9785 13.8359 11.9785C13.5998 11.9785 13.4054 11.9021 13.2526 11.7493L10.0026 8.49935L6.7526 11.7493C6.59983 11.9021 6.40538 11.9785 6.16927 11.9785C5.93316 11.9785 5.73872 11.9021 5.58594 11.7493C5.43316 11.5966 5.35677 11.4021 5.35677 11.166C5.35677 10.9299 5.43316 10.7355 5.58594 10.5827L9.41927 6.74935C9.5026 6.66602 9.59288 6.60685 9.6901 6.57185C9.78733 6.53685 9.89149 6.51963 10.0026 6.52018Z" fill="#202020"></path></svg>