<svg xmlns="http://www.w3.org/2000/svg" width="14" height="16" viewBox="0 0 14 16" fill="none">
<path d="M11.5515 1.85659C10.3284 0.659344 8.71193 0 7.00003 0C5.84118 0 4.70331 0.308531 3.7094 0.892187C2.7449 1.45859 1.9374 2.26872 1.37418 3.23503C1.309 3.34688 1.34681 3.49044 1.45865 3.55562C1.5705 3.62081 1.71406 3.58303 1.77925 3.47116C2.30203 2.57422 3.05156 1.82225 3.94681 1.2965C4.5919 0.917656 5.30262 0.664281 6.03965 0.545969C5.04556 1.30119 4.32578 2.44647 3.93503 3.91128C3.69659 4.80503 3.63337 5.60847 3.61915 6.08059L3.20528 5.81716C2.64306 5.45931 1.91643 5.45928 1.35418 5.81716L0.978122 6.05653C1.01943 5.49606 1.13787 4.94756 1.33134 4.42188C1.37606 4.30037 1.31381 4.16563 1.19231 4.12091C1.07078 4.07619 0.936059 4.13847 0.891341 4.25994C0.644341 4.93112 0.510778 5.63669 0.494403 6.357C0.491841 6.46997 0.551403 6.57459 0.649809 6.63006C0.748122 6.68547 0.868278 6.68222 0.963434 6.62166L1.00653 6.59425L5.05609 11.8943H4.59234C4.3639 11.8943 4.17806 12.0802 4.17806 12.3086V15.5857C4.17806 15.8142 4.3639 16 4.59234 16H9.40781C9.63625 16 9.82209 15.8142 9.82209 15.5857V15.0538C9.82209 14.9243 9.71712 14.8194 9.58765 14.8194C9.45818 14.8194 9.35322 14.9243 9.35322 15.0538V15.5312H4.6469V12.3632H6.25178V13.3298C6.25178 13.5128 6.40062 13.6616 6.58356 13.6616H7.41656C7.5995 13.6616 7.74834 13.5128 7.74834 13.3298V12.3632H9.35322V13.9472C9.35322 14.0766 9.45818 14.1816 9.58765 14.1816C9.71712 14.1816 9.82209 14.0766 9.82209 13.9472V12.3086C9.82209 12.0802 9.63625 11.8943 9.40781 11.8943H8.94406L12.9939 6.59387L13.0367 6.62113C13.0979 6.66013 13.1695 6.675 13.2389 6.66612C13.2774 6.66122 13.3153 6.64925 13.3503 6.62953C13.4487 6.57406 13.5082 6.46944 13.5057 6.35644C13.4667 4.65003 12.7727 3.05197 11.5515 1.85659ZM7.23447 0.623563C7.81587 0.962375 8.31253 1.42753 8.71372 2.01134C9.09934 2.57253 9.39944 3.24441 9.60568 4.00831C9.83553 4.85966 9.89737 5.62838 9.91178 6.07941L9.49975 5.81716C8.93753 5.45928 8.21093 5.45931 7.64865 5.81716L7.23447 6.08075V0.623563ZM4.39137 4.01972C4.59706 3.25356 4.89693 2.57966 5.28268 2.01675C5.68459 1.43028 6.18231 0.962719 6.76559 0.622844V6.08006L6.3525 5.81712C6.32993 5.80275 6.30703 5.78919 6.28397 5.776C6.26056 5.76259 6.23687 5.74984 6.213 5.73763C6.20112 5.73156 6.18925 5.72556 6.17725 5.71978C6.06128 5.66384 5.94028 5.62172 5.81672 5.59325C5.46143 5.51141 5.08512 5.54306 4.74622 5.68822C4.66203 5.72428 4.58009 5.76706 4.50147 5.81712L4.08925 6.0795C4.10428 5.62791 4.16615 4.85869 4.39137 4.01972ZM5.64609 11.8943L1.4035 6.34159L1.60597 6.21272C2.01522 5.95219 2.54418 5.95216 2.95356 6.21272L3.7275 6.70531C3.73015 6.707 3.73303 6.70819 3.73575 6.70975C3.73909 6.71169 3.74215 6.71394 3.74562 6.71572C3.74781 6.71684 3.75009 6.71763 3.75228 6.71869C3.75597 6.72047 3.75968 6.72206 3.76343 6.72363C3.76947 6.72613 3.77556 6.72834 3.78172 6.73034C3.78543 6.73153 3.78909 6.73275 3.79284 6.73375C3.79965 6.73556 3.8065 6.73694 3.8134 6.73812C3.81656 6.73869 3.81972 6.73941 3.8229 6.73981C3.83303 6.74113 3.84318 6.74197 3.85337 6.74197C3.86959 6.74197 3.88568 6.73966 3.90159 6.73619L5.98084 11.8943H5.64609ZM6.48634 11.8943L4.30984 6.49487L4.75325 6.21266C5.16256 5.95216 5.6915 5.95212 6.10081 6.21266L6.76565 6.63581V11.8943H6.48634ZM7.27946 13.1927H6.72065V12.3632H7.27946V13.1927ZM7.51378 11.8943H7.2345V6.63653L7.9004 6.21269C8.30972 5.95219 8.83865 5.95219 9.248 6.21269L9.6905 6.49434L7.51378 11.8943ZM8.35396 11.8943H8.01928L10.0986 6.73612C10.1148 6.73962 10.1312 6.74197 10.1478 6.74197C10.1915 6.74197 10.2353 6.72975 10.2737 6.70531L11.0475 6.21278C11.4568 5.95222 11.9857 5.95219 12.3951 6.21278L12.5969 6.34122L8.35396 11.8943ZM12.6469 5.81722C12.0847 5.45934 11.358 5.45934 10.7957 5.81722L10.3805 6.0815C10.3658 5.60381 10.3013 4.78613 10.0583 3.88613C9.666 2.433 8.9484 1.29575 7.95953 0.544875C7.97328 0.547063 7.98706 0.549125 8.00081 0.551406C8.01596 0.553937 8.03112 0.556437 8.04625 0.559062C8.07893 0.56475 8.11156 0.570781 8.14412 0.577C8.15543 0.579156 8.16675 0.581188 8.17803 0.583406C8.22147 0.591969 8.26478 0.600969 8.30797 0.610469C8.31734 0.612531 8.32662 0.614781 8.336 0.616875C8.37009 0.624531 8.40412 0.632469 8.43806 0.640719C8.45247 0.644219 8.46684 0.647875 8.48122 0.651469C8.51084 0.658906 8.54043 0.666594 8.56993 0.6745C8.58434 0.678344 8.59872 0.682187 8.61309 0.686156C8.64612 0.695281 8.67906 0.704719 8.71193 0.714375C8.72165 0.717219 8.73143 0.719969 8.74112 0.722875C8.78347 0.735563 8.82565 0.74875 8.86768 0.762344C8.87747 0.7655 8.88715 0.768875 8.8969 0.772062C8.92934 0.782781 8.96172 0.793687 8.99397 0.804937C9.00781 0.809781 9.02162 0.814719 9.0354 0.819656C9.06443 0.830031 9.09334 0.840625 9.12218 0.851438C9.13568 0.8565 9.14922 0.861531 9.16265 0.866687C9.19587 0.879406 9.22897 0.892469 9.26193 0.905781C9.27006 0.909063 9.27822 0.912187 9.28631 0.9155C9.32725 0.93225 9.36797 0.949437 9.4085 0.967094C9.41859 0.971469 9.42859 0.976062 9.43865 0.9805C9.46922 0.994 9.49968 1.00772 9.53003 1.02172C9.54347 1.02794 9.55687 1.03422 9.57025 1.04053C9.59812 1.05366 9.62593 1.06703 9.65362 1.08059C9.66643 1.08687 9.67928 1.09312 9.69206 1.0995C9.72521 1.11603 9.75821 1.13291 9.79106 1.15009C9.79747 1.15344 9.80393 1.15666 9.81034 1.16003C9.84953 1.18069 9.88847 1.20181 9.92722 1.22334C9.93756 1.22909 9.94781 1.23503 9.95812 1.24081C9.98665 1.25691 10.0151 1.27316 10.0434 1.28972C10.0563 1.29731 10.0692 1.30497 10.0822 1.31266C10.1087 1.3285 10.1352 1.34456 10.1616 1.36081C10.1737 1.36825 10.1858 1.37566 10.1978 1.38319C10.2307 1.40378 10.2634 1.42472 10.2959 1.446C10.3006 1.44909 10.3054 1.45206 10.3101 1.45516C10.3472 1.47956 10.3841 1.5045 10.4207 1.52975C10.4312 1.537 10.4416 1.54444 10.4521 1.55175C10.4784 1.57016 10.5047 1.58875 10.5307 1.60763C10.5432 1.61662 10.5556 1.62569 10.5679 1.63478C10.593 1.65322 10.6179 1.67184 10.6427 1.69069C10.6541 1.69928 10.6655 1.70784 10.6767 1.71653C10.7094 1.74166 10.7418 1.76709 10.774 1.79294C10.7767 1.79516 10.7795 1.79731 10.7823 1.79953C10.8172 1.82759 10.8516 1.85619 10.8859 1.88509C10.8963 1.89381 10.9065 1.90272 10.9168 1.91153C10.9411 1.93225 10.9652 1.95312 10.9892 1.97425C11.0009 1.98459 11.0125 1.99497 11.0242 2.00537C11.0477 2.02647 11.0711 2.04778 11.0944 2.06928C11.1047 2.07884 11.1151 2.08831 11.1254 2.09794C11.1584 2.12881 11.1912 2.16 11.2235 2.19169C12.2822 3.22794 12.9139 4.59034 13.0219 6.05597L12.6469 5.81722Z" fill="#000000"/>
</svg>