<svg xmlns="http://www.w3.org/2000/svg" width="16" height="16" viewBox="0 0 16 16" fill="none"><path d="M11.352 4.00065C12.072 4.00065 12.6654 4.58732 12.6654 5.33398V12.6673C12.6654 13.4207 12.072 14.0007 11.352 14.0007C11.352 14.3873 11.0387 14.6673 10.6654 14.6673C10.332 14.6673 9.9987 14.3873 9.9987 14.0007H5.9987C5.9987 14.3873 5.66536 14.6673 5.33203 14.6673C4.9587 14.6673 4.64536 14.3873 4.64536 14.0007C3.92536 14.0007 3.33203 13.4207 3.33203 12.6673V5.33398C3.33203 4.58732 3.92536 4.00065 4.64536 4.00065H5.9987V2.00065C5.9987 1.61398 6.30536 1.33398 6.66536 1.33398H9.33203C9.69203 1.33398 9.9987 1.61398 9.9987 2.00065V4.00065H11.352ZM9.53203 4.00065V1.80065H6.46536V4.00065H9.53203ZM4.05203 4.82732V13.174H6.33203V4.82732H4.05203ZM9.66536 4.82732V13.174H11.9454V4.82732H9.66536ZM6.96536 4.82732V13.174H9.03203V4.82732H6.96536Z" fill="#8E8E8E"></path></svg>