<svg  fill="none" height="18" viewBox="0 0 18 18" width="18" xmlns="http://www.w3.org/2000/svg"><path  d="M3.07739 6.72895H5.0904C5.2838 6.72895 5.44041 6.57233 5.44041 6.37893L5.44057 4.45353C5.44057 4.26013 5.28396 4.10352 5.09056 4.10352H3.07755C2.88415 4.10352 2.72754 4.26013 2.72754 4.45353V6.37893C2.72738 6.57233 2.88399 6.72895 3.07739 6.72895H3.07739ZM3.42757 4.80354H4.74037V6.02874H3.42757V4.80354Z" fill="black"></path><path  d="M6.89982 6.72911H8.91282C9.10623 6.72911 9.26284 6.5725 9.26284 6.37909V4.45369C9.26284 4.26029 9.10623 4.10368 8.91282 4.10368L6.89982 4.10352C6.70642 4.10352 6.5498 4.26013 6.5498 4.45353V6.37893C6.54964 6.5725 6.70625 6.72911 6.89982 6.72911V6.72911ZM7.24983 4.80371H8.56264V6.02891H7.24983V4.80371Z" fill="black"></path><path  d="M5.09056 9.96732C5.28396 9.96732 5.44057 9.81071 5.44057 9.61731V7.69193C5.44057 7.49853 5.28396 7.34192 5.09056 7.34192H3.07755C2.88415 7.34192 2.72754 7.49853 2.72754 7.69193V9.61731C2.72754 9.81071 2.88415 9.96732 3.07755 9.96732H5.09056ZM3.42776 8.04194H4.74056V9.26712H3.42776V8.04194Z" fill="black"></path><path  d="M6.89982 9.96751H8.91282C9.10623 9.96751 9.26284 9.8109 9.26284 9.6175V7.6921C9.26284 7.49869 9.10623 7.34208 8.91282 7.34208L6.89982 7.34192C6.70642 7.34192 6.5498 7.49853 6.5498 7.69193V9.61733C6.54964 9.8109 6.70625 9.96751 6.89982 9.96751V9.96751ZM7.24983 8.04211H8.56264V9.26731L7.24983 9.26747V8.04211Z" fill="black"></path><path  d="M0.35014 17.7762H17.65C17.8434 17.7762 18 17.6196 18 17.4262C18 17.2328 17.8434 17.0762 17.65 17.0762L16.5268 17.076V5.13449C16.5268 4.94108 16.3702 4.78447 16.1768 4.78447H10.4197V2.91733C10.4197 2.72393 10.2631 2.56732 10.0697 2.56732H9.01945V0.350177C9.01945 0.156774 8.86284 0.000162798 8.66943 0.000162798L3.34028 0C3.14688 0 2.99027 0.156611 2.99027 0.350014V2.56715H1.82333C1.62993 2.56715 1.47332 2.72376 1.47332 2.91717V17.0759H0.350015C0.156612 17.0759 1.26659e-07 17.2325 1.26659e-07 17.4259C-0.000162661 17.6196 0.156611 17.7761 0.350177 17.7761L0.35014 17.7762ZM4.5657 17.076V13.2248H5.59652V17.0762H4.5657V17.076ZM6.29673 17.076V13.2248H7.32755V17.0762H6.29673V17.076ZM15.8264 5.48456V8.96111H13.5023C13.3089 8.96111 13.1523 9.11772 13.1523 9.31113C13.1523 9.50453 13.3089 9.66114 13.5023 9.66114H15.8264V10.9303H13.5023C13.3089 10.9303 13.1523 11.0869 13.1523 11.2803C13.1523 11.4737 13.3089 11.6303 13.5023 11.6303H15.8264V12.8995H13.5023C13.3089 12.8995 13.1523 13.0561 13.1523 13.2495C13.1523 13.4429 13.3089 13.5995 13.5023 13.5995H15.8264V17.0761L10.4198 17.0764V5.48456L15.8264 5.48456ZM3.69029 0.700113H8.31928V2.56725H3.69029V0.700113ZM2.17319 3.26746H9.7191V17.0765H8.02696L8.02712 12.8751C8.02712 12.6817 7.87051 12.5251 7.67711 12.5251L4.21522 12.5249C4.02182 12.5249 3.86521 12.6815 3.86521 12.8749V17.0763H2.17307L2.17319 3.26746Z" fill="black"></path></svg>