<svg  fill="none" height="18" viewBox="0 0 18 18" width="18" xmlns="http://www.w3.org/2000/svg"><path  clip-rule="evenodd" d="M3.65807 1.26665C3.2269 1.26665 2.78842 1.44172 2.34565 1.87758L2.33657 1.88652C1.95509 2.2464 1.69045 2.64015 1.52475 3.06133L1.5235 3.06449C1.35373 3.48892 1.26641 3.95442 1.26641 4.44998C1.26641 5.2228 1.44454 6.05162 1.81903 6.94129C2.19847 7.83436 2.72427 8.745 3.38578 9.66484C4.05818 10.5882 4.81239 11.4724 5.64901 12.3174C6.49402 13.1541 7.37866 13.9087 8.31123 14.5899C9.22851 15.2578 10.1476 15.7843 11.0599 16.173C11.958 16.5557 12.7863 16.7333 13.5414 16.7333C14.0486 16.7333 14.5115 16.6395 14.9356 16.4628L14.9389 16.4615C15.3551 16.2909 15.7332 16.0219 16.0887 15.6301C16.2884 15.4098 16.4394 15.1766 16.5572 14.9271C16.6616 14.706 16.7081 14.485 16.7081 14.275C16.7081 14.1368 16.6804 14.0074 16.6218 13.8584C16.5806 13.7687 16.5102 13.6786 16.3749 13.585L16.369 13.5809L13.6158 11.6262C13.432 11.5015 13.2794 11.4176 13.1476 11.3636C13.0264 11.3141 12.9368 11.3 12.8664 11.3C12.7811 11.3 12.6961 11.3209 12.5867 11.3875L12.5698 11.3978L12.5523 11.4069C12.4342 11.4686 12.2831 11.5818 12.099 11.7659L12.0962 11.7687L11.4657 12.3909C11.4651 12.3915 11.4645 12.392 11.464 12.3926C11.2662 12.5896 11.0082 12.7083 10.6997 12.7083C10.5783 12.7083 10.4351 12.6947 10.2807 12.6368L10.2678 12.6319L10.2551 12.6265C10.221 12.6119 10.1893 12.5973 10.1667 12.587L10.1602 12.584C10.1332 12.5716 10.1235 12.5674 10.1186 12.5654L10.0889 12.5535L10.0607 12.5386C9.72498 12.3609 9.32993 12.0814 8.87884 11.6997L8.87807 11.699C8.4208 11.3108 7.97595 10.8913 7.52113 10.4449L7.51304 10.4369C7.06898 9.98433 6.66048 9.533 6.27937 9.09261L6.27501 9.08757C5.89773 8.6417 5.60969 8.24761 5.43134 7.92063L5.40576 7.87373L5.38886 7.82305C5.38897 7.82338 5.38741 7.81869 5.37528 7.79002C5.37436 7.78784 5.37338 7.78552 5.37234 7.78306C5.36194 7.75855 5.34574 7.72035 5.32961 7.67732L5.31761 7.64533L5.30932 7.61217C5.2828 7.50611 5.26641 7.39849 5.26641 7.27498C5.26641 6.99827 5.36055 6.7349 5.57062 6.52227L6.20873 5.85897C6.38154 5.68616 6.50258 5.5288 6.5774 5.39642L6.58218 5.38797L6.58722 5.37968C6.65252 5.27241 6.67474 5.17921 6.67474 5.09998C6.67474 5.04225 6.6582 4.94843 6.60659 4.828L6.60267 4.81886C6.54896 4.68758 6.46608 4.53704 6.33782 4.3589L6.33538 4.35551L4.39806 1.62487C4.31402 1.50348 4.20917 1.42029 4.08164 1.36143L4.0734 1.35763C3.95122 1.29898 3.80739 1.26665 3.65807 1.26665ZM1.5084 1.0179C2.13128 0.406577 2.85787 0.0666504 3.65807 0.0666504C3.97395 0.0666504 4.29523 0.133756 4.5886 0.273771C4.89179 0.414484 5.16788 0.629799 5.38258 0.938702L7.3129 3.65946C7.48294 3.89585 7.61562 4.12667 7.71154 4.35994C7.80885 4.58832 7.87474 4.84279 7.87474 5.09998C7.87474 5.41749 7.78221 5.7213 7.61738 5.99516C7.47682 6.24161 7.28446 6.47988 7.06157 6.70334L6.47603 7.312C6.47688 7.31403 6.47776 7.31611 6.47868 7.31827L6.48117 7.32417C6.48723 7.33849 6.49573 7.35857 6.5049 7.38203C6.63059 7.60277 6.85284 7.91246 7.18897 8.3099C7.55607 8.73402 7.94549 9.16388 8.36574 9.59242C8.80924 10.0276 9.22962 10.4233 9.65422 10.7838C10.0564 11.1241 10.3705 11.3415 10.5996 11.466C10.6226 11.4759 10.6435 11.4855 10.6589 11.4925L10.6649 11.4953L11.2505 10.9174C11.251 10.9169 11.2515 10.9164 11.252 10.9159C11.479 10.689 11.7216 10.4901 11.9797 10.3523C12.249 10.1918 12.5418 10.1 12.8664 10.1C13.1127 10.1 13.3564 10.1525 13.6019 10.253C13.8356 10.3486 14.0648 10.4803 14.2955 10.6372L14.3055 10.644L17.0611 12.6005C17.3535 12.8036 17.5818 13.0602 17.7239 13.3833L17.728 13.3927L17.7318 13.4021C17.8371 13.6653 17.9081 13.9497 17.9081 14.275C17.9081 14.665 17.8212 15.0607 17.6423 15.4395C17.4768 15.7899 17.2612 16.1233 16.9777 16.4362C16.5169 16.944 15.9953 17.3251 15.3955 17.5712C14.8201 17.8107 14.2003 17.9333 13.5414 17.9333C12.5965 17.9333 11.6081 17.711 10.5895 17.277C9.58523 16.849 8.58764 16.2755 7.60492 15.56C6.62186 14.842 5.69 14.0469 4.80253 13.168L4.79841 13.1639C3.91959 12.2765 3.12482 11.3452 2.41468 10.3698L2.41265 10.367C1.7082 9.38766 1.13449 8.39908 0.714164 7.40956L0.713422 7.40782C0.28816 6.39782 0.0664062 5.41026 0.0664062 4.44998C0.0664062 3.81279 0.178888 3.19551 0.408691 2.62039C0.642297 2.02734 1.00934 1.48988 1.5084 1.0179Z" fill="#FFFFFF" fill-rule="evenodd"></path><path  clip-rule="evenodd" d="M10.8999 3.5834C10.8999 3.25203 11.1685 2.9834 11.4999 2.9834C12.4413 2.9834 13.2974 3.57095 13.8808 4.19969C14.208 4.5503 14.4841 4.943 14.6814 5.32677C14.8726 5.69865 15.0166 6.11421 15.0166 6.50006C15.0166 6.83144 14.7479 7.10007 14.4166 7.10007C14.0852 7.10007 13.8166 6.83144 13.8166 6.50006C13.8166 6.38592 13.7647 6.16814 13.6142 5.87544C13.47 5.59488 13.2589 5.29201 13.0029 5.01779L13.0017 5.01643L13.0017 5.01642C12.5184 4.49542 11.9582 4.1834 11.4999 4.1834C11.1685 4.1834 10.8999 3.91477 10.8999 3.5834Z" fill="#FFFFFF" fill-rule="evenodd"></path><path  clip-rule="evenodd" d="M10.8999 0.66665C10.8999 0.33528 11.1685 0.0666504 11.4999 0.0666504C15.0563 0.0666504 17.9332 2.94361 17.9332 6.49998C17.9332 6.83135 17.6646 7.09998 17.3332 7.09998C17.0019 7.09998 16.7332 6.83135 16.7332 6.49998C16.7332 3.60635 14.3935 1.26665 11.4999 1.26665C11.1685 1.26665 10.8999 0.998021 10.8999 0.66665Z" fill="#FFFFFF" fill-rule="evenodd"></path></svg>