<svg width="15" height="11" viewBox="0 0 15 11" fill="none" xmlns="http://www.w3.org/2000/svg"><path d="M14.0625 9.16667C14.0625 9.40978 13.9637 9.64294 13.7879 9.81485C13.6121 9.98676 13.3736 10.0833 13.125 10.0833H1.875C1.62636 10.0833 1.3879 9.98676 1.21209 9.81485C1.03627 9.64294 0.9375 9.40978 0.9375 9.16667V3.66667C0.9375 3.42355 1.03627 3.19039 1.21209 3.01849C1.3879 2.84658 1.62636 2.75 1.875 2.75H2.97375C3.71929 2.7496 4.43416 2.45979 4.96125 1.94425L5.73938 1.18525C5.91469 1.01378 6.15234 0.917204 6.40031 0.916667H8.59781C8.84643 0.916719 9.08485 1.01333 9.26062 1.18525L10.0369 1.94425C10.2981 2.19974 10.6082 2.4024 10.9496 2.54065C11.2909 2.67891 11.6568 2.75004 12.0262 2.75H13.125C13.3736 2.75 13.6121 2.84658 13.7879 3.01849C13.9637 3.19039 14.0625 3.42355 14.0625 3.66667V9.16667ZM1.875 1.83333C1.37772 1.83333 0.900806 2.02649 0.549175 2.3703C0.197544 2.71412 0 3.18044 0 3.66667L0 9.16667C0 9.6529 0.197544 10.1192 0.549175 10.463C0.900806 10.8068 1.37772 11 1.875 11H13.125C13.6223 11 14.0992 10.8068 14.4508 10.463C14.8025 10.1192 15 9.6529 15 9.16667V3.66667C15 3.18044 14.8025 2.71412 14.4508 2.3703C14.0992 2.02649 13.6223 1.83333 13.125 1.83333H12.0262C11.529 1.83323 11.0522 1.64001 10.7006 1.29617L9.92438 0.537167C9.57283 0.193326 9.09599 0.000103835 8.59875 0H6.40125C5.90401 0.000103835 5.42717 0.193326 5.07562 0.537167L4.29938 1.29617C3.94783 1.64001 3.47099 1.83323 2.97375 1.83333H1.875Z" fill="white"></path><path d="M7.5 8.25C6.8784 8.25 6.28226 8.00856 5.84272 7.57879C5.40318 7.14902 5.15625 6.56612 5.15625 5.95833C5.15625 5.35055 5.40318 4.76765 5.84272 4.33788C6.28226 3.90811 6.8784 3.66667 7.5 3.66667C8.1216 3.66667 8.71774 3.90811 9.15728 4.33788C9.59682 4.76765 9.84375 5.35055 9.84375 5.95833C9.84375 6.56612 9.59682 7.14902 9.15728 7.57879C8.71774 8.00856 8.1216 8.25 7.5 8.25ZM7.5 9.16667C8.37024 9.16667 9.20484 8.82865 9.82019 8.22697C10.4355 7.62529 10.7812 6.80924 10.7812 5.95833C10.7812 5.10743 10.4355 4.29138 9.82019 3.6897C9.20484 3.08802 8.37024 2.75 7.5 2.75C6.62976 2.75 5.79516 3.08802 5.17981 3.6897C4.56445 4.29138 4.21875 5.10743 4.21875 5.95833C4.21875 6.80924 4.56445 7.62529 5.17981 8.22697C5.79516 8.82865 6.62976 9.16667 7.5 9.16667ZM2.8125 4.125C2.8125 4.24656 2.76311 4.36314 2.67521 4.44909C2.5873 4.53504 2.46807 4.58333 2.34375 4.58333C2.21943 4.58333 2.1002 4.53504 2.01229 4.44909C1.92439 4.36314 1.875 4.24656 1.875 4.125C1.875 4.00344 1.92439 3.88686 2.01229 3.80091C2.1002 3.71496 2.21943 3.66667 2.34375 3.66667C2.46807 3.66667 2.5873 3.71496 2.67521 3.80091C2.76311 3.88686 2.8125 4.00344 2.8125 4.125Z" fill="white"></path></svg>