<svg xmlns="http://www.w3.org/2000/svg" width="16" height="16" viewBox="0 0 16 16" fill="none">
<g clip-path="url(#clip0_10_314)">
<path d="M2.17256 7.10085H13.8274C13.9684 7.10085 14.0828 6.98653 14.0828 6.84553C14.0828 6.70452 13.9684 6.59021 13.8274 6.59021H2.17256C2.03155 6.59021 1.91724 6.70452 1.91724 6.84553C1.91724 6.98653 2.03155 7.10085 2.17256 7.10085Z" fill="#000000"/>
<path d="M15.7777 7.78295L15.1176 6.74363L14.8704 5.75047H15.4043C15.5453 5.75047 15.6596 5.63616 15.6596 5.49515C15.6596 5.35415 15.5453 5.23983 15.4043 5.23983H14.7433L14.0772 2.56426C13.9118 1.89995 13.246 1.37958 12.5614 1.37958H3.43857C2.75401 1.37958 2.0882 1.89995 1.92283 2.56426L1.25675 5.23983H0.595745C0.45474 5.23983 0.340426 5.35415 0.340426 5.49515C0.340426 5.63616 0.45474 5.75047 0.595745 5.75047H1.1296L0.882349 6.74363L0.222264 7.78298C0.0955574 7.98254 0 8.31129 0 8.54765V12.246C0 12.387 0.114315 12.5013 0.255319 12.5013H0.340426V14.3651C0.340426 14.5061 0.45474 14.6204 0.595745 14.6204H3.28208C3.42308 14.6204 3.5374 14.5061 3.5374 14.3651V13.2672C3.5374 13.1262 3.42308 13.0119 3.28208 13.0119C3.14107 13.0119 3.02676 13.1262 3.02676 13.2672V14.1098H0.851064V12.5013H4.49181C4.49253 12.5013 11.5119 12.5013 11.5119 12.5013C11.5142 12.5013 15.1489 12.5013 15.1489 12.5013V14.1098H12.9732V13.2672C12.9732 13.1262 12.8589 13.0119 12.7179 13.0119C12.5769 13.0119 12.4626 13.1262 12.4626 13.2672V14.3651C12.4626 14.5061 12.5769 14.6204 12.7179 14.6204H15.4043C15.5453 14.6204 15.6596 14.5061 15.6596 14.3651V12.5013H15.7447C15.8857 12.5013 16 12.387 16 12.246V8.54765C16 8.31129 15.9044 7.98254 15.7777 7.78295ZM0.510638 8.54765C0.510638 8.40834 0.578655 8.17434 0.653345 8.05675L1.33563 6.98244C1.35033 6.95925 1.36123 6.93386 1.36786 6.90724L2.41835 2.68759C2.52596 2.25536 2.99316 1.89022 3.43857 1.89022H12.5614C13.0068 1.89022 13.4741 2.25539 13.5817 2.68763L14.6321 6.9072C14.6387 6.93382 14.6496 6.95922 14.6643 6.9824L15.3466 8.05672C15.4213 8.17433 15.4893 8.40834 15.4893 8.54765V11.9906H11.6856L11.0689 10.4476C11.0302 10.3506 10.9363 10.287 10.8319 10.287H5.16814C5.06369 10.287 4.9698 10.3506 4.93106 10.4476L4.31438 11.9906H0.510638V8.54765ZM11.1357 11.9906H4.86427L5.34107 10.7976H10.6589L11.1357 11.9906Z" fill="#000000"/>
<path d="M1.27659 10.7126H2.23727C2.99836 10.7126 3.61759 10.0934 3.61759 9.33223C3.61759 8.57114 2.99839 7.9519 2.23727 7.9519H1.46515C1.32415 7.9519 1.20983 8.06622 1.20983 8.20722C1.20983 8.34823 1.32415 8.46254 1.46515 8.46254H2.23727C2.71679 8.46254 3.10696 8.85267 3.10696 9.33223C3.10696 9.81178 2.71683 10.2019 2.23727 10.2019H1.27659C1.13559 10.2019 1.02127 10.3162 1.02127 10.4572C1.02127 10.5982 1.13559 10.7126 1.27659 10.7126Z" fill="#000000"/>
<path d="M12.3824 9.33223C12.3824 10.0934 13.0016 10.7126 13.7627 10.7126H14.7234C14.8644 10.7126 14.9787 10.5982 14.9787 10.4572C14.9787 10.3162 14.8644 10.2019 14.7234 10.2019H13.7627C13.2832 10.2019 12.893 9.81178 12.893 9.33223C12.893 8.8527 13.2832 8.46254 13.7627 8.46254H14.5349C14.6759 8.46254 14.7902 8.34823 14.7902 8.20722C14.7902 8.06622 14.6759 7.9519 14.5349 7.9519H13.7627C13.0016 7.9519 12.3824 8.5711 12.3824 9.33223Z" fill="#000000"/>
</g>
<defs>
<clipPath id="clip0_10_314">
<rect width="16" height="16" fill="#000000"/>
</clipPath>
</defs>
</svg>