<svg xmlns="http://www.w3.org/2000/svg" width="18" height="16" viewBox="0 0 18 16" fill="none" class="ng-tns-c64-9"><path d="M11 0H2C0.896999 0 0 0.896999 0 2V8C0 9.10299 0.896999 9.99999 2 9.99999V12.5C2 12.695 2.114 12.873 2.291 12.954C2.358 12.985 2.429 13 2.5 13C2.617 13 2.733 12.959 2.825 12.879L6.185 9.99999H11C12.103 9.99999 13 9.10299 13 8V2C13 0.896999 12.103 0 11 0ZM12 8C12 8.55099 11.551 8.99999 11 8.99999H6C5.881 8.99999 5.765 9.042 5.675 9.12099L3 11.413V9.49999C3 9.22399 2.776 8.99999 2.5 8.99999H2C1.449 8.99999 0.999999 8.55099 0.999999 8V2C0.999999 1.449 1.449 0.999999 2 0.999999H11C11.551 0.999999 12 1.449 12 2V8Z" fill="#212220" class="ng-tns-c64-9"></path><path d="M16.6628 3.11686C16.4008 3.02686 16.1178 3.16486 16.0268 3.42686C15.9368 3.68786 16.0748 3.97186 16.3368 4.06286C16.7328 4.19886 16.9998 4.57586 16.9998 4.99986V10.9999C16.9998 11.5509 16.5508 11.9999 15.9998 11.9999H15.4998C15.2238 11.9999 14.9998 12.2239 14.9998 12.4999V14.4129L12.3248 12.1209C12.2348 12.0419 12.1188 11.9999 11.9998 11.9999H7.56982C7.29382 11.9999 7.06982 12.2239 7.06982 12.4999C7.06982 12.7759 7.29282 12.9999 7.56982 12.9999H11.8148L15.1748 15.8789C15.2668 15.9589 15.3828 15.9999 15.4998 15.9999C15.5708 15.9999 15.6418 15.9849 15.7088 15.9539C15.8858 15.8729 15.9998 15.6949 15.9998 15.4999V12.9999C17.1028 12.9999 17.9998 12.1029 17.9998 10.9999V4.99986C17.9998 4.14986 17.4628 3.39286 16.6628 3.11686Z" fill="#212220"></path></svg>