<svg width="16" height="16" viewBox="0 0 16 16" fill="none" xmlns="http://www.w3.org/2000/svg"><g clip-path="url(#clip0_3309_1812)"><path d="M15.3437 8.73153L9.86459 5.2312L10.0393 1.95584C10.0532 1.70442 10.0119 1.453 9.91795 1.21681C9.82402 0.980618 9.67936 0.764558 9.49277 0.581714C9.30619 0.39887 9.0815 0.253039 8.83237 0.153054C8.58324 0.0530687 8.31484 0.00100537 8.04336 1.43193e-05C7.77192 -0.000973257 7.50302 0.0491323 7.25307 0.147299C7.00308 0.245465 6.77719 0.389655 6.58907 0.571132C6.40091 0.752613 6.25445 0.967609 6.15849 1.20311C6.06257 1.43861 6.01915 1.68972 6.03089 1.94123L6.17825 5.22111L0.656792 8.74857C0.342457 8.94935 0.121246 9.25261 0.0372304 9.59792C-0.0467857 9.94322 0.012561 10.3052 0.203451 10.6117C0.256844 10.6976 0.33825 10.7657 0.435949 10.806C0.533644 10.8462 0.642599 10.8568 0.74716 10.836L6.38074 9.72328L6.61734 14.996C6.5614 15.0142 6.50789 15.0383 6.45798 15.068L5.5483 15.6136C5.50619 15.6376 5.47376 15.6738 5.45606 15.7166C5.43836 15.7594 5.43633 15.8065 5.45032 15.8504C5.46434 15.8944 5.49355 15.9329 5.53349 15.9599C5.57342 15.9869 5.62187 16.001 5.67129 15.9999H10.3438C10.3867 16.0003 10.4288 15.9892 10.4651 15.9681C10.5015 15.9471 10.5305 15.9167 10.549 15.8808C10.5674 15.8449 10.5743 15.8049 10.569 15.7654C10.5637 15.7259 10.5463 15.6887 10.5189 15.6581C10.5035 15.6405 10.4852 15.6254 10.4645 15.6133L9.52712 15.0642C9.47009 15.0307 9.40837 15.0046 9.34376 14.9866L9.62574 9.70519L15.2533 10.818C15.3578 10.8387 15.4668 10.8281 15.5645 10.7878C15.6622 10.7476 15.7436 10.6796 15.797 10.5937C15.9876 10.2872 16.0467 9.92549 15.9627 9.58043C15.8787 9.23536 15.6577 8.93231 15.3437 8.73153ZM8.99991 2.40268H7.08756C6.98317 2.40259 6.88308 2.36409 6.80925 2.29564C6.73546 2.22718 6.69391 2.13436 6.69384 2.03756C6.69384 1.74704 6.81829 1.46843 7.03979 1.26301C7.26128 1.05759 7.56175 0.942183 7.875 0.942183H8.21247C8.52572 0.942183 8.82615 1.05759 9.04768 1.26301C9.26918 1.46843 9.39363 1.74704 9.39363 2.03756C9.39352 2.13436 9.35201 2.22718 9.27818 2.29564C9.20438 2.36409 9.1043 2.40259 8.99991 2.40268Z" fill="#515151"></path></g><defs><clipPath id="clip0_3309_1812"><rect width="16" height="16" fill="white"></rect></clipPath></defs></svg>