<svg xmlns="http://www.w3.org/2000/svg" width="33" height="30" viewBox="0 0 33 30" fill="none"><path fill-rule="evenodd" clip-rule="evenodd" d="M16.2083 11.2711L12.0564 13.8324C12.0564 13.8324 9.80123 12.7963 7.48138 11.7305C7.11031 11.5601 6.91208 11.1435 7.01516 10.7507C7.11823 10.3579 7.49157 10.1071 7.8933 10.1608C11.7312 10.6733 16.2083 11.2711 16.2083 11.2711Z" fill="#F2DE72"></path><path d="M11.8352 19.4244L13.4064 18.4551L14.7313 24.2333C14.8467 24.7367 15.2581 25.1652 15.6944 25.2366C16.1307 25.308 16.4577 25.0003 16.4601 24.5161L16.499 16.5474L24.1802 11.8089C24.1802 11.8089 21.8095 7.68074 18.5999 9.65769L5.71858 17.604C4.82785 16.3727 3.867 15.1906 2.94641 15.1207C2.69761 15.1012 2.49437 15.2356 2.41113 15.4746C2.32789 15.7136 2.3769 16.022 2.54027 16.2868L5.57724 21.2098C6.08934 22.04 6.99925 22.4077 7.60959 22.0312L8.54385 21.4549" fill="#F2DE72"></path><path d="M25.4966 6.57325C24.2449 6.23398 22.9197 6.48751 21.5575 7.32689L16.0807 10.7055L7.95437 9.62025C7.29111 9.53163 6.66265 9.95388 6.49241 10.6022C6.32013 11.2588 6.64512 11.942 7.26509 12.2267L10.9043 13.8987L5.88735 16.9936C4.99829 15.8833 4.0139 14.9514 2.85173 15.0134C2.24889 15.0442 1.75416 15.4644 1.62076 16.059C1.54293 16.4057 1.61036 16.7861 1.80564 17.1027L4.64804 21.7103C5.28342 22.7403 6.62102 23.072 7.62975 22.4497L8.80335 21.7258C9.0559 21.57 9.13173 21.2346 8.97262 20.9766C8.81351 20.7187 8.47974 20.636 8.22719 20.7918L7.05359 21.5158C6.54923 21.8269 5.88043 21.661 5.56273 21.1461L2.72034 16.5384C2.67638 16.4672 2.65992 16.3871 2.67532 16.3188C2.70285 16.196 2.8039 16.1094 2.92766 16.1031C3.72012 16.0608 4.55547 17.009 5.3401 18.0401C5.51076 18.2643 5.81958 18.3247 6.05452 18.1798L12.3444 14.2997L16.4962 11.7384L22.1334 8.26096C23.2328 7.58352 24.273 7.36932 25.2251 7.62427C26.2 7.88524 26.8939 8.58784 27.2615 9.04985L18.1572 14.6661C18.0228 14.749 17.9326 14.888 17.9102 15.0462L16.757 23.2026C16.7233 23.4403 16.5101 23.6083 16.2715 23.5854C16.0593 23.5651 15.8839 23.3836 15.8543 23.1541L15.1209 17.4542C15.0972 17.2692 14.9818 17.1075 14.8149 17.0252C14.6481 16.9428 14.4528 16.9513 14.2968 17.0475L12.3356 18.2573C12.0831 18.4131 12.0073 18.7485 12.1664 19.0065C12.3255 19.2644 12.6593 19.3471 12.9118 19.1913L14.158 18.4226L14.7823 23.2748C14.8776 24.015 15.4691 24.6025 16.1889 24.6717C16.5287 24.7043 16.8532 24.6218 17.1234 24.4551C17.4934 24.2269 17.7614 23.8408 17.8271 23.3763L18.9451 15.4694L28.3214 9.68526C28.5664 9.53415 28.6463 9.21273 28.5026 8.95638C28.4603 8.88091 27.4437 7.10104 25.4966 6.57325ZM12.0104 13.2163L7.69757 11.2349C7.57151 11.177 7.50283 11.033 7.53774 10.8999C7.57262 10.767 7.69641 10.6838 7.83226 10.7019L14.6175 11.608L12.0104 13.2163Z" fill="#595959"></path><path d="M11.8203 17.0003C12.0808 16.8396 12.1591 16.4938 11.995 16.2279C11.831 15.9621 11.4869 15.8768 11.2263 16.0375C10.9658 16.1982 10.8876 16.544 11.0516 16.8099C11.2156 17.0758 11.5598 17.1611 11.8203 17.0003Z" fill="#595959"></path><path d="M13.7073 15.8363C13.9678 15.6756 14.046 15.3298 13.882 15.0639C13.718 14.798 13.3738 14.7127 13.1133 14.8734C12.8528 15.0341 12.7746 15.38 12.9386 15.6459C13.1026 15.9117 13.4468 15.997 13.7073 15.8363Z" fill="#595959"></path><path d="M15.5942 14.6722C15.8548 14.5115 15.933 14.1657 15.769 13.8998C15.6049 13.6339 15.2608 13.5487 15.0003 13.7094C14.7398 13.8701 14.6615 14.2159 14.8255 14.4818C14.9896 14.7477 15.3337 14.8329 15.5942 14.6722Z" fill="#595959"></path><path d="M17.4813 13.5083C17.7418 13.3476 17.82 13.0017 17.656 12.7358C17.492 12.47 17.1478 12.3847 16.8873 12.5454C16.6267 12.7061 16.5485 13.052 16.7125 13.3178C16.8765 13.5837 17.2207 13.669 17.4813 13.5083Z" fill="#595959"></path><path d="M19.3682 12.3442C19.6287 12.1835 19.7069 11.8377 19.5429 11.5718C19.3789 11.3059 19.0347 11.2207 18.7742 11.3814C18.5137 11.5421 18.4355 11.8879 18.5995 12.1538C18.7635 12.4197 19.1077 12.5049 19.3682 12.3442Z" fill="#595959"></path><path d="M21.2554 11.18C21.5159 11.0193 21.5941 10.6735 21.4301 10.4076C21.2661 10.1417 20.9219 10.0565 20.6614 10.2172C20.4009 10.3779 20.3227 10.7237 20.4867 10.9896C20.6507 11.2555 20.9949 11.3407 21.2554 11.18Z" fill="#595959"></path><path d="M10.9968 20.3691C11.1985 20.1382 11.1736 19.7824 10.9411 19.5746C10.7086 19.3667 10.3566 19.3854 10.1548 19.6164C9.95309 19.8473 9.97802 20.2031 10.2105 20.4109C10.443 20.6188 10.795 20.6001 10.9968 20.3691Z" fill="#595959"></path></svg>