<svg width="14" height="14" viewBox="0 0 14 14" fill="none" xmlns="http://www.w3.org/2000/svg"><g clip-path="url(#clip0_9884_6033)"><path d="M1.16797 7.00008C1.16797 4.25025 1.16797 2.87533 2.02197 2.02075C2.87714 1.16675 4.25147 1.16675 7.0013 1.16675C9.75114 1.16675 11.1261 1.16675 11.9801 2.02075C12.8346 2.87591 12.8346 4.25025 12.8346 7.00008C12.8346 9.74992 12.8346 11.1248 11.9801 11.9788C11.1266 12.8334 9.75114 12.8334 7.0013 12.8334C4.25147 12.8334 2.87655 12.8334 2.02197 11.9788C1.16797 11.1254 1.16797 9.74992 1.16797 7.00008Z" stroke="white"></path><path d="M9.33464 5.83333C9.97897 5.83333 10.5013 5.311 10.5013 4.66667C10.5013 4.02233 9.97897 3.5 9.33464 3.5C8.6903 3.5 8.16797 4.02233 8.16797 4.66667C8.16797 5.311 8.6903 5.83333 9.33464 5.83333Z" stroke="white"></path><path d="M1.16797 7.29177L2.18997 6.39752C2.44613 6.17356 2.77782 6.0553 3.11789 6.06667C3.45796 6.07804 3.78101 6.2182 4.02164 6.45877L6.52413 8.96127C6.71833 9.15542 6.97479 9.27486 7.24837 9.29854C7.52195 9.32223 7.79512 9.24866 8.0198 9.09077L8.19422 8.96827C8.51831 8.74064 8.91004 8.62968 9.30536 8.65352C9.70069 8.67736 10.0762 8.83459 10.3706 9.09952L12.2513 10.7918" stroke="white" stroke-linecap="round"></path></g><defs><clipPath id="clip0_9884_6033"><rect width="14" height="14" fill="white"></rect></clipPath></defs></svg>