<svg xmlns="http://www.w3.org/2000/svg" width="28" height="28" viewBox="0 0 28 28" fill="none">
  <g clip-path="url(#clip0_99_1116)">
    <path d="M13.7725 0H14.1558C14.3406 0.069369 14.5076 0.179112 14.6446 0.321241C14.7817 0.463369 14.8854 0.634301 14.9481 0.821591C16.1294 3.37225 17.3336 5.91146 18.5178 8.45925C18.552 8.53963 18.6078 8.60894 18.679 8.65948C18.7502 8.71002 18.834 8.7398 18.9211 8.74552C21.6099 9.14916 24.2986 9.56425 26.9873 9.96217C27.2035 9.97164 27.4127 10.0423 27.5904 10.1659C27.7681 10.2896 27.9071 10.4611 27.9913 10.6607V11.1559C27.854 11.322 27.7367 11.4994 27.5823 11.6569C25.6029 13.6837 23.6235 15.7133 21.6442 17.7458C21.5939 17.7824 21.5549 17.8324 21.5316 17.8901C21.5084 17.9478 21.5018 18.0109 21.5126 18.0722C21.8673 20.202 22.2162 22.3319 22.5595 24.4617C22.6911 25.2633 22.8255 26.062 22.9514 26.8635C23.0458 27.4675 22.7426 27.9113 22.1962 27.9828C21.9673 27.999 21.7395 27.9375 21.5498 27.8082C19.1128 26.4608 16.6767 25.1106 14.2416 23.7575C14.1686 23.7079 14.0824 23.6814 13.9942 23.6814C13.9059 23.6814 13.8197 23.7079 13.7467 23.7575C11.3126 25.1115 8.88414 26.4542 6.43853 27.8082C6.28591 27.9236 6.10056 27.9874 5.90931 27.9903C5.71805 27.9933 5.5308 27.9352 5.3747 27.8246C5.2186 27.714 5.10174 27.5565 5.04102 27.3749C4.9803 27.1934 4.97888 26.9972 5.03697 26.8148C5.51179 23.9197 5.98852 21.0246 6.46715 18.1294C6.48452 18.0563 6.48112 17.9798 6.45737 17.9084C6.43362 17.8371 6.39044 17.7739 6.3327 17.7258C5.8636 17.2563 5.40309 16.7754 4.93971 16.2945L0.300226 11.5366C0.173244 11.4246 0.0813412 11.2781 0.0355946 11.115C-0.010152 10.9518 -0.00780636 10.7789 0.0423684 10.6171C0.0925431 10.4552 0.188411 10.3114 0.3184 10.2028C0.448389 10.0942 0.606963 10.0256 0.775037 10.0051C3.54577 9.58144 6.31745 9.15966 9.09009 8.7398C9.17373 8.73303 9.2537 8.7025 9.32059 8.65178C9.38748 8.60107 9.4385 8.53229 9.46766 8.45353C10.6433 5.93722 11.8274 3.42665 13.0002 0.907478C13.1804 0.532465 13.3635 0.171762 13.7725 0Z" fill="#FFBA0A"/>
  </g>
  <defs>
    <clipPath id="clip0_99_1116">
      <rect width="28" height="28" fill="white"/>
    </clipPath>
  </defs>
</svg>