<svg xmlns="http://www.w3.org/2000/svg" width="16" height="16" viewBox="0 0 16 16" fill="none"><path d="M12.9987 4H10.6654V3.33333C10.6648 2.97987 10.5242 2.64104 10.2743 2.39111C10.0243 2.14117 9.68549 2.00053 9.33203 2H6.66536C6.31191 2.00053 5.97307 2.14117 5.72314 2.39111C5.47321 2.64104 5.33256 2.97987 5.33203 3.33333V4H2.9987C2.55678 4.00035 2.13306 4.17606 1.82058 4.48855C1.50809 4.80103 1.33238 5.22475 1.33203 5.66667V12.3333C1.33238 12.7753 1.50809 13.199 1.82058 13.5115C2.13306 13.8239 2.55678 13.9996 2.9987 14H12.9987C13.4406 13.9996 13.8643 13.8239 14.1768 13.5115C14.4893 13.199 14.665 12.7753 14.6654 12.3333V5.66667C14.665 5.22475 14.4893 4.80103 14.1768 4.48855C13.8643 4.17606 13.4406 4.00035 12.9987 4ZM5.9987 3.33333C5.9987 3.15652 6.06894 2.98695 6.19396 2.86193C6.31898 2.7369 6.48855 2.66667 6.66536 2.66667H9.33203C9.50884 2.66667 9.67841 2.7369 9.80344 2.86193C9.92846 2.98695 9.9987 3.15652 9.9987 3.33333V4H5.9987V3.33333ZM13.9987 12.3333C13.9987 12.5985 13.8933 12.8529 13.7058 13.0404C13.5183 13.228 13.2639 13.3333 12.9987 13.3333H2.9987C2.73348 13.3333 2.47913 13.228 2.29159 13.0404C2.10405 12.8529 1.9987 12.5985 1.9987 12.3333V8.018L5.89336 9.31667C5.92738 9.32773 5.96293 9.33335 5.9987 9.33333H9.9987C10.0345 9.33335 10.07 9.32773 10.104 9.31667L13.9987 8.018V12.3333ZM13.9987 7.33733C13.9631 7.336 13.9275 7.34051 13.8934 7.35067L9.9447 8.66667H6.0527L2.10403 7.35C2.06988 7.33984 2.0343 7.33534 1.9987 7.33667V5.66667C1.9987 5.40145 2.10405 5.1471 2.29159 4.95956C2.47913 4.77202 2.73348 4.66667 2.9987 4.66667H12.9987C13.2639 4.66667 13.5183 4.77202 13.7058 4.95956C13.8933 5.1471 13.9987 5.40145 13.9987 5.66667V7.33733Z" fill="#8E8E8E"></path></svg>