<svg xmlns="http://www.w3.org/2000/svg" width="50" height="50" viewBox="0 0 50 50" fill="none">
<path d="M24.9999 44.7917C35.9306 44.7917 44.7916 35.9307 44.7916 25C44.7916 14.0694 35.9306 5.20837 24.9999 5.20837C14.0693 5.20837 5.20825 14.0694 5.20825 25C5.20825 35.9307 14.0693 44.7917 24.9999 44.7917Z" stroke="white" stroke-width="2" stroke-linecap="round"/>
<path d="M20.4895 27.6042C20.9475 28.3949 21.6053 29.0513 22.3969 29.5076C23.1885 29.9638 24.0862 30.204 24.9999 30.204C25.9136 30.204 26.8113 29.9638 27.6029 29.5076C28.3946 29.0513 29.0523 28.3949 29.5103 27.6042" stroke="#F37002" stroke-width="2" stroke-linecap="round"/>
<path d="M18.7499 16.6667H16.6666C15.516 16.6667 14.5833 17.5995 14.5833 18.7501C14.5833 19.9007 15.516 20.8334 16.6666 20.8334H18.7499C19.9005 20.8334 20.8333 19.9007 20.8333 18.7501C20.8333 17.5995 19.9005 16.6667 18.7499 16.6667Z" fill="#F37002"/>
<path d="M33.3332 16.6667H31.2498C30.0992 16.6667 29.1665 17.5995 29.1665 18.7501C29.1665 19.9007 30.0992 20.8334 31.2498 20.8334H33.3332C34.4838 20.8334 35.4165 19.9007 35.4165 18.7501C35.4165 17.5995 34.4838 16.6667 33.3332 16.6667Z" fill="#F37002"/>
</svg>