<svg width="23" height="23" viewBox="0 0 23 23" fill="none" xmlns="http://www.w3.org/2000/svg"><rect x="3.46237" y="6.08789" width="10.9582" height="15.8285" fill="#F2DE72"></rect><rect x="7.11337" y="17.0461" width="3.65273" height="4.8703" fill="white"></rect><path d="M22.4248 21.8498H19.8873V0H11.4873V3.8027C11.4873 4.12018 11.7448 4.37772 12.0623 4.37772C12.3798 4.37772 12.6373 4.12016 12.6373 3.8027L12.6371 1.15008H18.7371V6.20766H17.3788C17.0613 6.20766 16.8038 6.46521 16.8038 6.78268C16.8038 7.10014 17.0613 7.3577 17.3788 7.3577H18.7371V9.18731H17.3788C17.0613 9.18731 16.8038 9.44487 16.8038 9.76233C16.8038 10.0798 17.0613 10.3373 17.3788 10.3373H18.7371V12.167H17.3788C17.0613 12.167 16.8038 12.4245 16.8038 12.742C16.8038 13.0594 17.0613 13.317 17.3788 13.317H18.7371V14.8985H17.3788C17.0613 14.8985 16.8038 15.156 16.8038 15.4735C16.8038 15.7909 17.0613 16.0485 17.3788 16.0485H18.7371V21.85H15.0313V5.8243H2.99499V21.85H0.575019C0.257541 21.85 0 22.1075 0 22.425C0 22.7425 0.257555 23 0.575019 23H22.4248C22.7423 23 22.9998 22.7424 22.9998 22.425C22.9998 22.1075 22.7421 21.85 22.4248 21.85L22.4248 21.8498ZM7.17121 21.8498V18.1646H8.43787L8.43805 21.8498H7.17121ZM9.58827 21.8498V18.1646H10.8547V21.8498H9.58827ZM12.0046 21.8498V17.0149H6.02159L6.02177 21.8498H4.14525V6.97369H13.882V21.8498H12.0046Z" fill="#595959"></path><path d="M6.11276 13.9634H7.3211V15.1721H6.11276V13.9634Z" fill="#595959"></path><path d="M8.40976 13.9634H9.61848V15.1721H8.40976V13.9634Z" fill="#595959"></path><path d="M10.7048 13.9634H11.9137V15.1721H10.7048V13.9634Z" fill="#595959"></path><path d="M6.11276 11.6265H7.3211V12.8352H6.11276V11.6265Z" fill="#595959"></path><path d="M8.40976 11.6265H9.61848V12.8352H8.40976V11.6265Z" fill="#595959"></path><path d="M10.7048 11.6265H11.9137V12.8352H10.7048V11.6265Z" fill="#595959"></path><path d="M6.11276 9.28931H7.3211V10.4982H6.11276V9.28931Z" fill="#595959"></path><path d="M8.40976 9.28931H9.61848V10.4982H8.40976V9.28931Z" fill="#595959"></path><path d="M10.7048 9.28931H11.9137V10.4982H10.7048V9.28931Z" fill="#595959"></path></svg>