<svg xmlns="http://www.w3.org/2000/svg" width="22" height="22" viewBox="0 0 22 22" fill="none">
<path d="M20.0355 1.89226H18.2837V1.18581C18.2837 0.531953 17.7043 0 16.9877 0C16.2756 0 15.6963 0.531953 15.6963 1.18581V1.89226H6.30373V1.18581C6.30373 0.531953 5.72439 0 5.00779 0C4.29569 0 3.71635 0.531953 3.71635 1.18581V1.89226H1.96447C0.881273 1.89226 0 2.69827 0 3.689V20.2032C0 21.194 0.881226 22 1.96447 22H16.0556C16.1474 22 16.2382 21.9656 16.3032 21.9062L21.8966 16.7946C21.9614 16.7354 22 16.6502 22 16.5662V3.68904C22 2.69827 21.1188 1.89226 20.0355 1.89226ZM16.9922 0.644531C17.3173 0.644531 17.5817 0.887348 17.5817 1.18581V3.14278C17.5817 3.44124 17.3173 3.68405 16.9922 3.68405H16.9877C16.6627 3.68405 16.3982 3.44124 16.3982 3.14278V1.18581C16.3982 0.887348 16.6627 0.644531 16.9922 0.644531ZM4.4183 1.18581C4.4183 0.887348 4.68274 0.644531 5.01229 0.644531C5.33734 0.644531 5.60178 0.887348 5.60178 1.18581V3.14278C5.60178 3.44124 5.33734 3.68405 5.01229 3.68405H5.00779C4.68274 3.68405 4.4183 3.44124 4.4183 3.14278V1.18581ZM0.701948 20.2033V6.20112C1.18377 6.20452 1.67022 6.20632 2.1598 6.20632C2.76942 6.20632 3.38353 6.20366 3.99746 6.19841C4.45049 6.19455 4.44188 5.54529 3.9909 5.55393C2.88613 5.56338 1.78159 5.5642 0.701948 5.55659V3.68904C0.701948 3.0537 1.26833 2.53683 1.96447 2.53683H3.71635V3.14282C3.71635 3.79668 4.29569 4.32863 5.00779 4.32863H5.01229C5.72439 4.32863 6.30373 3.79668 6.30373 3.14282V2.53679H15.6963V3.14278C15.6963 3.79663 16.2756 4.32859 16.9877 4.32859H16.9922C17.7043 4.32859 18.2837 3.79663 18.2837 3.14278V2.53679H20.0355C20.7317 2.53679 21.2981 3.05366 21.2981 3.689V5.55457C16.2137 5.5645 11.2437 5.56428 6.11757 5.55388C5.66664 5.55388 5.66295 6.19747 6.11603 6.19841C8.73851 6.20374 11.32 6.20641 13.8968 6.20641C16.3575 6.20641 18.8143 6.20396 21.2981 6.1991V16.2439H17.6691C16.5859 16.2439 15.7046 17.0499 15.7046 18.0406V21.3555H1.96447C1.26828 21.3555 0.701948 20.8386 0.701948 20.2033ZM20.7988 16.8884L16.4065 20.9023V18.0406C16.4065 17.4053 16.9729 16.8884 17.6691 16.8884H20.7988Z" fill="#027FB1"/>
<path d="M17.1273 12.3261C17.1411 11.3863 16.7519 10.4776 16.0595 9.83316C15.4318 9.24895 14.6152 8.92725 13.76 8.92725C12.6471 8.92725 11.622 9.47952 10.9999 10.3762C10.3777 9.47952 9.35265 8.92725 8.23968 8.92725C6.38298 8.92725 4.87244 10.45 4.87244 12.3218C4.87244 14.0135 5.91848 15.6477 7.89746 17.0477C9.3628 18.0844 10.8076 18.6265 10.8683 18.6491C10.957 18.6808 11.0457 18.6804 11.1342 18.6481C11.2004 18.6229 12.7728 18.0185 14.2997 16.8769C14.6403 16.6222 14.2126 16.1109 13.8564 16.377C12.6594 17.2721 11.4019 17.8307 10.9983 17.9989C10.6133 17.842 9.45513 17.3384 8.31339 16.5283C6.49595 15.2389 5.57443 13.8236 5.57443 12.3217C5.57443 10.8054 6.77008 9.57173 8.23973 9.57173C9.28919 9.57173 10.2446 10.2112 10.6739 11.2007C10.7889 11.4661 11.2109 11.4661 11.326 11.2007C11.7552 10.2112 12.7107 9.57173 13.7601 9.57173C14.426 9.57173 15.0652 9.82534 15.5599 10.2858C16.1213 10.8083 16.4368 11.5488 16.4255 12.3174C16.4108 13.31 15.9835 14.282 15.1554 15.2063C14.8764 15.5177 15.4058 15.9414 15.6975 15.6157C16.6293 14.5756 17.1104 13.4688 17.1273 12.3261Z" fill="#027FB1"/>
</svg>