<svg width="16" height="16" viewBox="0 0 16 16" fill="none" xmlns="http://www.w3.org/2000/svg"><path d="M8.00167 0C9.8203 0 11.5644 0.693765 12.8504 1.92867C14.1364 3.16358 14.8588 4.83848 14.8588 6.58491C14.8588 9.36745 12.8228 12.3999 8.80343 15.7146C8.57994 15.899 8.29499 16.0002 8.00036 16C7.70572 15.9998 7.42096 15.898 7.19781 15.7133L6.93196 15.4917C3.09055 12.2635 1.14453 9.30532 1.14453 6.58491C1.14453 4.83848 1.86698 3.16358 3.15294 1.92867C4.43891 0.693765 6.18305 0 8.00167 0ZM8.00167 1.01306C6.46283 1.01306 4.98702 1.60009 3.8989 2.64502C2.81078 3.68994 2.19948 5.10716 2.19948 6.58491C2.19948 8.95007 3.99148 11.6752 7.62471 14.7279L7.88704 14.946C7.91893 14.9724 7.95961 14.9869 8.00167 14.9869C8.04374 14.9869 8.08441 14.9724 8.11631 14.946C11.9254 11.8042 13.8039 9.00612 13.8039 6.58491C13.8039 5.8532 13.6538 5.12866 13.3622 4.45265C13.0706 3.77665 12.6432 3.16241 12.1044 2.64502C11.5657 2.12762 10.926 1.71721 10.2221 1.43719C9.51812 1.15718 8.76363 1.01306 8.00167 1.01306ZM8.00167 4.05225C8.70115 4.05225 9.37197 4.31908 9.86657 4.79405C10.3612 5.26901 10.639 5.9132 10.639 6.58491C10.639 7.25661 10.3612 7.9008 9.86657 8.37576C9.37197 8.85073 8.70115 9.11756 8.00167 9.11756C7.3022 9.11756 6.63138 8.85073 6.13678 8.37576C5.64218 7.9008 5.36431 7.25661 5.36431 6.58491C5.36431 5.9132 5.64218 5.26901 6.13678 4.79405C6.63138 4.31908 7.3022 4.05225 8.00167 4.05225ZM8.00167 5.06531C7.58199 5.06531 7.1795 5.22541 6.88274 5.51039C6.58597 5.79537 6.41926 6.18188 6.41926 6.58491C6.41926 6.98793 6.58597 7.37444 6.88274 7.65942C7.1795 7.9444 7.58199 8.1045 8.00167 8.1045C8.42136 8.1045 8.82385 7.9444 9.12061 7.65942C9.41737 7.37444 9.58409 6.98793 9.58409 6.58491C9.58409 6.18188 9.41737 5.79537 9.12061 5.51039C8.82385 5.22541 8.42136 5.06531 8.00167 5.06531Z" fill="#F37022"></path></svg>