<svg fill="none" height="16" viewBox="0 0 18 16" width="18" xmlns="http://www.w3.org/2000/svg" class="writeUs"><path clip-rule="evenodd" d="M2.22051 2.34591C1.64738 2.8781 1.26641 3.73934 1.26641 5.08332V10.9167C1.26641 12.2606 1.64738 13.1219 2.22051 13.6541C2.80169 14.1937 3.67505 14.4833 4.83307 14.4833H13.1664C14.3244 14.4833 15.1978 14.1937 15.779 13.6541C16.3521 13.1219 16.7331 12.2606 16.7331 10.9167V5.08332C16.7331 3.73934 16.3521 2.8781 15.779 2.34591C15.1978 1.80624 14.3244 1.51665 13.1664 1.51665H4.83307C3.67505 1.51665 2.80169 1.80624 2.22051 2.34591ZM1.40397 1.46656C2.28112 0.652057 3.4911 0.31665 4.83307 0.31665H13.1664C14.5084 0.31665 15.7184 0.652057 16.5955 1.46656C17.4807 2.28853 17.9331 3.51062 17.9331 5.08332V10.9167C17.9331 12.4893 17.4807 13.7114 16.5955 14.5334C15.7184 15.3479 14.5084 15.6833 13.1664 15.6833H4.83307C3.4911 15.6833 2.28112 15.3479 1.40397 14.5334C0.518765 13.7114 0.0664062 12.4893 0.0664062 10.9167V5.08332C0.0664062 3.51062 0.518765 2.28853 1.40397 1.46656Z" fill="#595959" fill-rule="evenodd"></path><path clip-rule="evenodd" d="M13.6356 5.1256C13.8424 5.38451 13.8001 5.76206 13.5412 5.96886L10.9329 8.05219L10.9321 8.05279C9.85507 8.91024 8.13676 8.91024 7.05971 8.05279L7.05823 8.05161L7.05823 8.05161L4.45824 5.96827C4.19964 5.76107 4.15798 5.38346 4.36519 5.12486C4.5724 4.86627 4.95001 4.82461 5.2086 5.03182L7.80712 7.11397C7.80734 7.11415 7.80757 7.11433 7.80779 7.1145C8.44741 7.6231 9.54497 7.62301 10.1844 7.11421C10.1845 7.11413 10.1846 7.11405 10.1847 7.11397L12.7923 5.03123C13.0512 4.82443 13.4288 4.86668 13.6356 5.1256Z" fill="#595959" fill-rule="evenodd"></path></svg>