<svg width="25" height="25" viewBox="0 0 25 25" fill="none" xmlns="http://www.w3.org/2000/svg"><g clip-path="url(#clip0_6213_4849)"><path fill-rule="evenodd" clip-rule="evenodd" d="M18.9955 18.1241V23.4416C18.9955 24.0212 18.5257 24.4911 17.9461 24.4911C17.3664 24.4911 16.8966 24.0212 16.8966 23.4416V13.0698L15.7483 11.645C15.7483 9.19254 15.7483 5.43666 15.7483 2.98428C15.7483 2.32785 16.042 1.69824 16.5652 1.23391C17.0883 0.769578 18.256 0.508789 18.9955 0.508789V13.5951" fill="#F2DE72"></path><path d="M10.5868 9.16841V23.3551C10.5868 23.9537 10.1065 24.4416 9.50793 24.4509C8.89756 24.4603 8.3971 23.9692 8.39506 23.3588L8.34789 9.16841C8.34789 9.16841 6.03259 9.17691 6.03259 6.45453C6.03259 3.73214 6.03259 2.91797 6.03259 2.91797H13.0548V6.50541C13.0548 6.50541 12.953 9.16841 10.5868 9.16841Z" fill="#F2DE72"></path><path d="M10.5189 16.3773C10.8 16.3773 11.0278 16.1495 11.0278 15.8685C11.0278 15.5874 10.8 15.3596 10.5189 15.3596C10.2379 15.3596 10.0101 15.5874 10.0101 15.8685C10.0101 16.1495 10.2379 16.3773 10.5189 16.3773Z" fill="#595959"></path><path d="M18.9897 16.3773C19.2708 16.3773 19.4986 16.1495 19.4986 15.8685C19.4986 15.5874 19.2708 15.3596 18.9897 15.3596C18.7087 15.3596 18.4809 15.5874 18.4809 15.8685C18.4809 16.1495 18.7087 16.3773 18.9897 16.3773Z" fill="#595959"></path><path d="M19.5044 0.508857C19.5044 0.227866 19.2766 0 18.9955 0C18.297 0 16.9278 0.231683 16.2273 0.853354C15.5995 1.41065 15.2393 2.18737 15.2393 2.98435V11.645C15.2393 11.7612 15.2791 11.8739 15.352 11.9644L16.3877 13.2494V23.4417C16.3877 24.3009 17.0868 25 17.9461 25C18.8053 25 19.5044 24.3009 19.5044 23.4417V18.1242C19.5044 17.8432 19.2766 17.6153 18.9956 17.6153C18.7145 17.6153 18.4867 17.8432 18.4867 18.1242V23.4417C18.4867 23.7398 18.2442 23.9823 17.9461 23.9823C17.648 23.9823 17.4055 23.7398 17.4055 23.4417V13.0698C17.4055 12.9537 17.3657 12.841 17.2928 12.7505L16.2571 11.4655V2.98429C16.2571 2.4706 16.4864 1.98414 16.9029 1.6145C17.2078 1.34389 17.8847 1.13638 18.4867 1.05506V13.5951C18.4867 13.8761 18.7145 14.104 18.9955 14.104C19.2766 14.104 19.5044 13.8761 19.5044 13.5951V0.508857Z" fill="#595959"></path><path d="M10.5396 17.6153C10.2586 17.6153 10.0308 17.8432 10.0308 18.1242V23.4219C10.0308 23.7183 9.78969 23.9594 9.49328 23.9594C9.19687 23.9594 8.95577 23.7183 8.95577 23.4219V9.04989C8.95577 8.7689 8.72796 8.54103 8.44692 8.54103C7.38071 8.54103 6.51326 7.67358 6.51326 6.60737V2.74006C6.51326 2.45907 6.28544 2.2312 6.0044 2.2312C5.72336 2.2312 5.49554 2.45907 5.49554 2.74006V6.60737C5.49554 8.06123 6.55239 9.27297 7.93806 9.51488V23.422C7.93806 24.2795 8.6357 24.9772 9.49328 24.9772C10.3509 24.9772 11.0485 24.2795 11.0485 23.422V18.1242C11.0485 17.8431 10.8206 17.6153 10.5396 17.6153Z" fill="#595959"></path><path d="M13.0034 2.2312C12.7223 2.2312 12.4945 2.45907 12.4945 2.74006V6.60737C12.4945 7.67358 11.6176 8.54103 10.5396 8.54103C10.2586 8.54103 10.0308 8.7689 10.0308 9.04989V13.5952C10.0308 13.8761 10.2586 14.104 10.5396 14.104C10.8207 14.104 11.0485 13.8761 11.0485 13.5952V9.51544C12.446 9.27506 13.5122 8.0625 13.5122 6.60737V2.74006C13.5122 2.45902 13.2844 2.2312 13.0034 2.2312Z" fill="#595959"></path><path d="M8.04502 7.30283C8.32606 7.30283 8.55388 7.07496 8.55388 6.79397V2.74006C8.55388 2.45907 8.32606 2.2312 8.04502 2.2312C7.76398 2.2312 7.53616 2.45907 7.53616 2.74006V6.79397C7.53616 7.07496 7.76398 7.30283 8.04502 7.30283Z" fill="#595959"></path><path d="M10.9627 7.30283C11.2438 7.30283 11.4716 7.07496 11.4716 6.79397V2.74006C11.4716 2.45907 11.2438 2.2312 10.9627 2.2312C10.6817 2.2312 10.4539 2.45907 10.4539 2.74006V6.79397C10.4539 7.07496 10.6817 7.30283 10.9627 7.30283Z" fill="#595959"></path></g></svg>