<svg width="16"
                                                                    height="16" viewBox="0 0 16 16" fill="none"
                                                                    xmlns="http://www.w3.org/2000/svg">
                                                                    <g clip-path="url(#clip0_233_66688)">
                                                                        <path
                                                                            d="M6.25975 1.93145C6.25324 1.9537 6.24996 1.97677 6.25 1.99995L6.25 5.62645L4.9975 6.47645C4.98385 6.28524 4.8975 6.10651 4.75618 5.97698C4.61487 5.84744 4.42931 5.77694 4.23764 5.77995C4.04596 5.78296 3.86271 5.85925 3.72553 5.99315C3.58834 6.12705 3.50764 6.3084 3.5 6.49995L3.5 7.49245L2.5 8.1712L2.5 7.99995C2.5 7.80104 2.42098 7.61028 2.28033 7.46962C2.13968 7.32897 1.94891 7.24995 1.75 7.24995C1.55109 7.24995 1.36032 7.32897 1.21967 7.46962C1.07902 7.61028 1 7.80104 1 7.99995L1 9.18895L0.1095 9.7932C0.0757699 9.81612 0.0481583 9.84694 0.0290723 9.88298C0.00998628 9.91902 5.371e-06 9.95917 -2.23647e-07 9.99995L-1.47152e-07 11.75C-2.16629e-05 11.7887 0.00894776 11.8269 0.0262013 11.8615C0.0434548 11.8962 0.068521 11.9263 0.0994244 11.9497C0.130328 11.973 0.166224 11.9888 0.204285 11.9959C0.242345 12.003 0.281529 12.0011 0.31875 11.9905L6.25 10.296L6.25 12.9197L5.13025 13.5305C5.09082 13.552 5.05792 13.5837 5.035 13.6223C5.01208 13.661 4.99999 13.705 5 13.75L5 15.75C4.99999 15.7933 5.01127 15.836 5.03273 15.8737C5.05418 15.9114 5.08508 15.9428 5.12238 15.965C5.15968 15.9871 5.2021 15.9992 5.24547 16C5.28884 16.0007 5.33167 15.9902 5.36975 15.9695L7.25 14.944L7.25 15.25C7.25 15.4489 7.32902 15.6396 7.46967 15.7803C7.61032 15.9209 7.80109 16 8 16C8.19891 16 8.38968 15.9209 8.53033 15.7803C8.67098 15.6396 8.75 15.4489 8.75 15.25L8.75 14.9437L10.6302 15.9687C10.6683 15.9895 10.711 16 10.7543 15.9992C10.7976 15.9985 10.84 15.9865 10.8773 15.9644C10.9146 15.9424 10.9455 15.911 10.967 15.8734C10.9885 15.8358 10.9999 15.7933 11 15.75L11 13.75C11 13.705 10.9879 13.661 10.965 13.6223C10.9421 13.5837 10.9092 13.552 10.8697 13.5305C10.8697 13.5305 8.601 12.2982 8.59175 12.2945C8.5226 12.203 8.43317 12.1287 8.33049 12.0776C8.22782 12.0265 8.11469 11.9999 8 11.9999C7.88531 11.9999 7.77218 12.0265 7.66951 12.0776C7.56683 12.1287 7.4774 12.203 7.40825 12.2945C7.4 12.2982 6.75 12.647 6.75 12.647L6.75 2.0362C6.8885 1.57845 7.35275 0.499953 8 0.499953C8.64725 0.499953 9.11125 1.57845 9.25 2.0362L9.25 12C9.25 12.0663 9.27634 12.1298 9.32322 12.1767C9.37011 12.2236 9.4337 12.25 9.5 12.25C9.5663 12.25 9.62989 12.2236 9.67678 12.1767C9.72366 12.1298 9.75 12.0663 9.75 12L9.75 10.2957L15.6815 11.9905C15.7187 12.0011 15.7579 12.0029 15.7959 11.9958C15.8339 11.9887 15.8698 11.9728 15.9007 11.9495C15.9315 11.9262 15.9566 11.8961 15.9738 11.8614C15.991 11.8268 16 11.7886 16 11.75L16 9.99995C16 9.95917 15.99 9.91902 15.9709 9.88298C15.9518 9.84694 15.9242 9.81612 15.8905 9.7932L15 9.18895L15 7.99995C15 7.80104 14.921 7.61028 14.7803 7.46962C14.6397 7.32897 14.4489 7.24995 14.25 7.24995C14.0511 7.24995 13.8603 7.32897 13.7197 7.46962C13.579 7.61028 13.5 7.80104 13.5 7.99995L13.5 8.1712L12.5 7.49245L12.5 6.49995C12.4924 6.3084 12.4117 6.12705 12.2745 5.99315C12.1373 5.85925 11.954 5.78296 11.7624 5.77995C11.5707 5.77694 11.3851 5.84744 11.2438 5.97698C11.1025 6.10651 11.0161 6.28524 11.0025 6.47645L9.75 5.62645L9.75 1.99995C9.75 1.97679 9.7468 1.95374 9.7405 1.93145C9.71775 1.85245 9.175 -4.61774e-05 8 -4.61261e-05C6.825 -4.60747e-05 6.282 1.85245 6.25975 1.93145ZM5.5 15.3287L5.5 13.8985L7.25 12.944L7.25 14.375L5.5 15.3287ZM8 15.5C7.9337 15.5 7.87011 15.4736 7.82322 15.4267C7.77634 15.3798 7.75 15.3163 7.75 15.25L7.75 12.75C7.75 12.6836 7.77634 12.6201 7.82322 12.5732C7.87011 12.5263 7.9337 12.5 8 12.5C8.0663 12.5 8.12989 12.5263 8.17678 12.5732C8.22366 12.6201 8.25 12.6836 8.25 12.75L8.25 15.25C8.25 15.3163 8.22366 15.3798 8.17678 15.4267C8.12989 15.4736 8.0663 15.5 8 15.5ZM10.5 13.8985L10.5 15.3287L8.75 14.375L8.75 12.9445L10.5 13.8985ZM4 6.49995C4 6.43365 4.02634 6.37006 4.07322 6.32318C4.12011 6.27629 4.1837 6.24995 4.25 6.24995C4.3163 6.24995 4.37989 6.27629 4.42678 6.32318C4.47366 6.37006 4.5 6.43365 4.5 6.49995L4.5 6.81395L4 7.1532L4 6.49995ZM1.5 7.99995C1.5 7.93365 1.52634 7.87006 1.57322 7.82318C1.62011 7.77629 1.6837 7.74995 1.75 7.74995C1.8163 7.74995 1.87989 7.77629 1.92678 7.82318C1.97366 7.87006 2 7.93365 2 7.99995L2 8.51045L1.5 8.84995L1.5 7.99995ZM0.5 11.4185L0.5 10.1325L6.25 6.2307L6.25 9.77495L0.5 11.4185ZM14 7.99995C14 7.93365 14.0263 7.87006 14.0732 7.82318C14.1201 7.77629 14.1837 7.74995 14.25 7.74995C14.3163 7.74995 14.3799 7.77629 14.4268 7.82318C14.4737 7.87006 14.5 7.93365 14.5 7.99995L14.5 8.84995L14 8.5107L14 7.99995ZM11.5 6.49995C11.5 6.43365 11.5263 6.37006 11.5732 6.32318C11.6201 6.27629 11.6837 6.24995 11.75 6.24995C11.8163 6.24995 11.8799 6.27629 11.9268 6.32318C11.9737 6.37006 12 6.43365 12 6.49995L12 7.1532L11.5 6.81395L11.5 6.49995ZM15.5 10.1325L15.5 11.4185L9.75 9.77495L9.75 6.22995L15.5 10.1325Z"
                                                                            fill="#202020"></path>
                                                                        <path
                                                                            d="M8.52548 2.11089C8.55512 2.17024 8.60712 2.21537 8.67003 2.23638C8.73295 2.25738 8.80164 2.25253 8.86098 2.22289C8.92032 2.19326 8.96546 2.14126 8.98646 2.07834C9.00747 2.01542 9.00262 1.94674 8.97298 1.88739C8.88035 1.70565 8.74194 1.55119 8.5714 1.43926C8.40086 1.32733 8.20408 1.26181 8.00048 1.24914C7.79667 1.26162 7.59965 1.32706 7.42887 1.43899C7.2581 1.55093 7.11948 1.70549 7.02673 1.88739C6.99689 1.94664 6.99181 2.01531 7.01261 2.07829C7.0334 2.14128 7.07836 2.19343 7.13761 2.22327C7.19685 2.25311 7.26552 2.25819 7.32851 2.23739C7.39149 2.2166 7.44364 2.17164 7.47348 2.11239C7.52481 2.01328 7.59973 1.92831 7.69163 1.86497C7.78353 1.80162 7.88959 1.76185 8.00048 1.74914C8.11088 1.76196 8.21646 1.80164 8.30799 1.8647C8.39951 1.92777 8.47418 2.01229 8.52548 2.11089Z"
                                                                            fill="#202020"></path>
                                                                    </g>
                                                                    <defs>
                                                                        <clipPath id="clip0_233_66688">
                                                                            <rect width="16" height="16" fill="white"
                                                                                transform="translate(0 16) rotate(-90)">
                                                                            </rect>
                                                                        </clipPath>
                                                                    </defs>
                                                                </svg>