<svg width="24" height="24" viewBox="0 0 24 24" fill="none" xmlns="http://www.w3.org/2000/svg"><path d="M21.9638 19.5379H2.03615C1.19272 19.5379 0.509033 18.8542 0.509033 18.0108V8.08522C0.509033 7.2418 1.19272 6.55811 2.03615 6.55811H21.9638C22.8073 6.55811 23.491 7.2418 23.491 8.08522V18.0108C23.491 18.8542 22.8073 19.5379 21.9638 19.5379Z" fill="#F2DE72"></path><path d="M3.1936 4.46191H7.26072V6.55803H3.1936V4.46191Z" fill="white"></path><path d="M12 17.4903C14.4534 17.4903 16.4422 15.5014 16.4422 13.048C16.4422 10.5946 14.4534 8.60571 12 8.60571C9.54655 8.60571 7.55768 10.5946 7.55768 13.048C7.55768 15.5014 9.54655 17.4903 12 17.4903Z" fill="white"></path><path d="M12 15.4665C13.3357 15.4665 14.4184 14.3838 14.4184 13.0481C14.4184 11.7124 13.3357 10.6296 12 10.6296C10.6643 10.6296 9.58154 11.7124 9.58154 13.0481C9.58154 14.3838 10.6643 15.4665 12 15.4665Z" fill="white"></path><path d="M21.9638 6.049H7.76981V4.46192C7.76981 4.18083 7.54187 3.95288 7.26077 3.95288H3.19361C2.91252 3.95288 2.68457 4.18083 2.68457 4.46192V6.04905H2.03615C0.913419 6.04905 0 6.96247 0 8.08521V18.0107C0 19.1335 0.913419 20.0469 2.03615 20.0469H21.9638C23.0866 20.0469 24 19.1335 24 18.0107V8.08515C24 6.96247 23.0865 6.049 21.9638 6.049ZM3.70265 4.97096H6.75169V6.04905H3.70265V4.97096ZM22.9819 18.0107C22.9819 18.5721 22.5252 19.0288 21.9638 19.0288H2.03615C1.47479 19.0288 1.01808 18.5721 1.01808 18.0107V8.08515C1.01808 7.52379 1.47479 7.06708 2.03615 7.06708H3.19361H7.26072H21.9638C22.5252 7.06708 22.9819 7.52379 22.9819 8.08515L22.9819 18.0107Z" fill="#595959"></path><path d="M12 8.09668C9.26978 8.09668 7.04865 10.3178 7.04865 13.048C7.04865 15.7782 9.26978 17.9993 12 17.9993C14.7301 17.9993 16.9513 15.7782 16.9513 13.048C16.9513 10.3178 14.7301 8.09668 12 8.09668ZM12 16.9812C9.8312 16.9812 8.06672 15.2168 8.06672 13.0479C8.06672 10.8791 9.83115 9.11471 12 9.11471C14.1688 9.11471 15.9332 10.8791 15.9332 13.0479C15.9332 15.2168 14.1688 16.9812 12 16.9812Z" fill="#595959"></path><path d="M12 10.1206C10.3858 10.1206 9.07251 11.4339 9.07251 13.0481C9.07251 14.6623 10.3858 15.9756 12 15.9756C13.6142 15.9756 14.9275 14.6623 14.9275 13.0481C14.9275 11.4339 13.6142 10.1206 12 10.1206ZM12 14.9574C10.9471 14.9574 10.0906 14.1009 10.0906 13.048C10.0906 11.9952 10.9471 11.1386 12 11.1386C13.0528 11.1386 13.9094 11.9952 13.9094 13.048C13.9094 14.1009 13.0528 14.9574 12 14.9574Z" fill="#595959"></path><path d="M2.57007 11.2153C2.28898 11.2153 2.06104 11.4433 2.06104 11.7244V17.222C2.06104 17.5031 2.28898 17.731 2.57007 17.731C2.85116 17.731 3.07911 17.5031 3.07911 17.222V11.7244C3.07911 11.4432 2.85122 11.2153 2.57007 11.2153Z" fill="#595959"></path><path d="M2.57013 9.94288C2.85127 9.94288 3.07917 9.71498 3.07917 9.43384C3.07917 9.15271 2.85127 8.9248 2.57013 8.9248C2.289 8.9248 2.0611 9.15271 2.0611 9.43384C2.0611 9.71498 2.289 9.94288 2.57013 9.94288Z" fill="#595959"></path><path d="M21.405 15.3897C21.6861 15.3897 21.914 15.1618 21.914 14.8807V9.38306C21.914 9.10197 21.6861 8.87402 21.405 8.87402C21.1239 8.87402 20.8959 9.10197 20.8959 9.38306V14.8806C20.8959 15.1618 21.1239 15.3897 21.405 15.3897Z" fill="#595959"></path><path d="M21.405 17.6804C21.6862 17.6804 21.9141 17.4525 21.9141 17.1714C21.9141 16.8903 21.6862 16.6624 21.405 16.6624C21.1239 16.6624 20.896 16.8903 20.896 17.1714C20.896 17.4525 21.1239 17.6804 21.405 17.6804Z" fill="#595959"></path></svg>