<svg xmlns="http://www.w3.org/2000/svg" width="16" height="16" viewBox="0 0 16 16" fill="none">
<g clip-path="url(#clip0_10_320)">
<path d="M14.8214 5.84231H14.154V3.87353H15.139C15.6137 3.87353 16 3.48725 16 3.01247C16 2.53769 15.6137 2.15141 15.139 2.15141H13.0931C12.9633 2.15141 12.8582 2.25656 12.8582 2.38625C12.8582 2.51594 12.9633 2.62109 13.0931 2.62109H15.139C15.3548 2.62109 15.5303 2.79666 15.5303 3.01247C15.5303 3.22828 15.3548 3.40384 15.139 3.40384H1.72213V2.62109H12.1537C12.2834 2.62109 12.3886 2.51594 12.3886 2.38625C12.3886 2.25656 12.2834 2.15141 12.1537 2.15141H1.72213V0.861063C1.72213 0.386281 1.33588 0 0.861063 0C0.38625 0 0 0.386281 0 0.861063V15.4521C0 15.7542 0.245813 16 0.547938 16H1.17416C1.47628 16 1.72209 15.7542 1.72209 15.4521V3.87353H4.77016V5.84231H4.10275C3.45531 5.84231 2.92859 6.36903 2.92859 7.01647V11.3442C2.92859 11.9917 3.45531 12.5184 4.10275 12.5184H4.87937C5.00909 12.5184 5.11422 12.4132 5.11422 12.2836C5.11422 12.1539 5.00909 12.0487 4.87937 12.0487H4.10275C3.71428 12.0487 3.39825 11.7327 3.39825 11.3442V7.01647C3.39825 6.628 3.71431 6.31197 4.10275 6.31197H9.79781C9.92753 6.31197 10.0327 6.20681 10.0327 6.07713C10.0327 5.94744 9.92753 5.84228 9.79781 5.84228H6.25378V3.8735H12.6703V5.84228H10.7372C10.6074 5.84228 10.5023 5.94744 10.5023 6.07713C10.5023 6.20681 10.6074 6.31197 10.7372 6.31197H14.8214C15.2098 6.31197 15.5259 6.628 15.5259 7.01647V11.3442C15.5259 11.7327 15.2098 12.0487 14.8214 12.0487H5.81875C5.68903 12.0487 5.58391 12.1539 5.58391 12.2836C5.58391 12.4133 5.68903 12.5184 5.81875 12.5184H14.8214C15.4688 12.5184 15.9955 11.9917 15.9955 11.3443V7.01647C15.9955 6.36903 15.4688 5.84231 14.8214 5.84231ZM1.25244 15.4521C1.25244 15.4952 1.21734 15.5303 1.17416 15.5303H0.547938C0.50475 15.5303 0.469656 15.4952 0.469656 15.4521V0.861063C0.469656 0.64525 0.645219 0.469687 0.861031 0.469687C1.07684 0.469687 1.25241 0.64525 1.25241 0.861063L1.25244 15.4521ZM5.78412 5.84231H5.23984V3.87353H5.78412V5.84231ZM13.14 3.87353H13.6843V5.84231H13.14V3.87353Z" fill="#000000"/>
<path d="M14.4618 10.0576C14.2873 10.0586 14.0997 10.0593 13.9591 10.0594V8.18503C13.9591 8.05559 13.8542 7.95065 13.7247 7.95065C13.5953 7.95065 13.4904 8.05559 13.4904 8.18503V10.292C13.4904 10.4061 13.5726 10.5037 13.6851 10.523C13.7021 10.5259 13.7159 10.5282 13.9459 10.5282C14.0584 10.5282 14.2227 10.5277 14.4645 10.5263C14.5939 10.5256 14.6982 10.4201 14.6975 10.2907C14.6968 10.1612 14.5917 10.0573 14.4618 10.0576Z" fill="#000000"/>
<path d="M6.04708 7.94662C5.91761 7.94662 5.8127 8.05156 5.8127 8.181V8.96481H4.8222V8.181C4.8222 8.05156 4.7173 7.94662 4.58783 7.94662C4.45836 7.94662 4.35345 8.05156 4.35345 8.181V10.2897C4.35345 10.4191 4.45836 10.5241 4.58783 10.5241C4.7173 10.5241 4.8222 10.4191 4.8222 10.2897V9.43356H5.8127V10.2897C5.8127 10.4191 5.91761 10.5241 6.04708 10.5241C6.17655 10.5241 6.28145 10.4191 6.28145 10.2897V8.181C6.28145 8.05156 6.17652 7.94662 6.04708 7.94662Z" fill="#000000"/>
<path d="M12.7124 8.42902C12.8418 8.42902 12.9468 8.32408 12.9468 8.19464C12.9468 8.0652 12.8418 7.96027 12.7124 7.96027H11.832C11.7025 7.96027 11.5976 8.0652 11.5976 8.19464V10.2841C11.5976 10.4135 11.7025 10.5185 11.832 10.5185H12.7124C12.8418 10.5185 12.9468 10.4135 12.9468 10.2841C12.9468 10.1547 12.8418 10.0497 12.7124 10.0497H12.0663V9.47377H12.6475C12.777 9.47377 12.8819 9.36883 12.8819 9.23939C12.8819 9.10995 12.777 9.00502 12.6475 9.00502H12.0663V8.42902H12.7124Z" fill="#000000"/>
<path d="M10.8753 7.95065H9.71075C9.58129 7.95065 9.47638 8.05559 9.47638 8.18503C9.47638 8.31447 9.58129 8.4194 9.71075 8.4194H10.0563V10.2937C10.0563 10.4232 10.1612 10.5281 10.2907 10.5281C10.4202 10.5281 10.5251 10.4232 10.5251 10.2937V8.4194H10.8753C11.0048 8.4194 11.1097 8.31447 11.1097 8.18503C11.1097 8.05559 11.0048 7.95065 10.8753 7.95065Z" fill="#000000"/>
<path d="M8.01605 7.95065C7.30542 7.95065 6.72729 8.52878 6.72729 9.2394C6.72729 9.95 7.30542 10.5281 8.01605 10.5281C8.72664 10.5281 9.30476 9.95 9.30476 9.2394C9.30476 8.52878 8.72664 7.95065 8.01605 7.95065ZM8.01605 10.0594C7.56389 10.0594 7.19604 9.69153 7.19604 9.2394C7.19604 8.78725 7.56389 8.4194 8.01605 8.4194C8.4682 8.4194 8.83601 8.78725 8.83601 9.2394C8.83601 9.69153 8.46817 10.0594 8.01605 10.0594Z" fill="#000000"/>
</g>
<defs>
<clipPath id="clip0_10_320">
<rect width="16" height="16" fill="#000000"/>
</clipPath>
</defs>
</svg>