<svg xmlns="http://www.w3.org/2000/svg" version="1.1" width="512" height="512">
<path d="M0 0 C4.48425447 1.33263639 8.16585023 3.11851339 12.1484375 5.5625 C12.71895844 5.91002319 13.28947937 6.25754639 13.87728882 6.61560059 C15.71415079 7.73690937 17.54516618 8.86726283 19.375 10 C21.26319915 11.16653909 23.15152333 12.33287486 25.04003906 13.49890137 C26.28536163 14.26798053 27.53015734 15.03791348 28.77441406 15.80871582 C32.27259554 17.96757338 35.80150717 20.04175435 39.3984375 22.03125 C40.1507666 22.45921875 40.9030957 22.8871875 41.67822266 23.328125 C43.01466473 24.08406678 44.36547669 24.81539579 45.73193359 25.515625 C47.484375 26.53125 47.484375 26.53125 50 29 C51.20030175 35.18994474 49.80921461 41.44668502 47 47 C43.19708112 52.5068241 38.78799658 57.34880333 34 62 C29.04894394 68.01199664 29.33324348 74.48046809 30 82 C33.31122 88.99035333 38.68003021 92.09178972 45.69140625 94.64453125 C47.3207572 95.21728865 48.95097645 95.78758162 50.58203125 96.35546875 C51.36191406 96.64035156 52.14179687 96.92523438 52.9453125 97.21875 C53.65187988 97.46560547 54.35844727 97.71246094 55.08642578 97.96679688 C57.56271744 99.30383009 58.5266924 100.59979004 60 103 C60.39440918 105.64927673 60.39440918 105.64927673 60.41992188 108.69897461 C60.44378967 110.41611916 60.44378967 110.41611916 60.46813965 112.16795349 C60.46834106 113.40030228 60.46854248 114.63265106 60.46875 115.90234375 C60.48017029 117.80712242 60.48017029 117.80712242 60.49182129 119.75038147 C60.50262895 122.43636343 60.50684101 125.1214655 60.50097656 127.80737305 C60.49508112 131.24208079 60.52566754 134.67537461 60.56609344 138.10980892 C60.59822347 141.3947939 60.59385413 144.67972588 60.59375 147.96484375 C60.61014526 149.1951683 60.62654053 150.42549286 60.64343262 151.69309998 C60.57449053 160.19778569 60.57449053 160.19778569 57.69897461 164.21313477 C55.50063832 165.66855071 53.71489335 166.82971094 51.22265625 167.625 C50.54396484 167.85703125 49.86527344 168.0890625 49.16601562 168.328125 C48.47185547 168.54984375 47.77769531 168.7715625 47.0625 169 C40.73387685 171.03272303 35.72272018 173.23194976 31.6875 178.81640625 C28.51331077 186.87812548 31.12678937 195.30483661 34.25 203.04296875 C35.14902695 205.0989497 36.06627952 207.14704093 37 209.1875 C37.48911865 210.27393799 37.9782373 211.36037598 38.48217773 212.47973633 C50.33176519 238.32104759 67.88682503 263.9274384 90 282 C90.49532227 282.41830078 90.99064453 282.83660156 91.50097656 283.26757812 C109.09645589 298.12506448 136.57592025 319.92186089 160.6015625 319.30859375 C164.31486101 318.83082407 166.27742392 317.52810636 169 315 C172.34406067 310.18061845 174.02439455 305.25714855 175.6796875 299.6484375 C177.40576878 296.18606144 179.7343277 293.99101215 183 292 C186.49047852 291.36508179 186.49047852 291.36508179 190.37890625 291.35302734 C191.44841019 291.33988495 191.44841019 291.33988495 192.53952026 291.32647705 C194.88114456 291.30458682 197.22085872 291.31899635 199.5625 291.3359375 C201.19865275 291.33256632 202.83480305 291.32771119 204.47094727 291.32144165 C207.89396086 291.31408447 211.31632047 291.32473779 214.73925781 291.34814453 C219.11766111 291.37663254 223.49453191 291.36022223 227.87287903 291.33028221 C231.24966897 291.31217744 234.62609811 291.31798162 238.00289917 291.33092117 C239.61677229 291.33424645 241.23067863 291.33019907 242.84451294 291.31852341 C245.10425024 291.30576095 247.36153804 291.32526122 249.62109375 291.35302734 C250.9042749 291.35700531 252.18745605 291.36098328 253.50952148 291.36508179 C258.1252028 292.20467445 259.71638988 293.69193698 263 297 C264.5390625 300.12109375 264.5390625 300.12109375 265.625 303.4375 C267.70990312 309.31373967 269.37762133 313.68613647 274.125 317.875 C281.72559317 320.84914515 288.37708438 318.96747979 295.70117188 315.89526367 C318.03652263 306.02864998 339.47434479 293.17206631 356.5234375 275.4765625 C358 274 358 274 360.5 272.0625 C373.97446312 260.94606793 384.61081055 244.16162734 393 229 C393.34224609 228.39623535 393.68449219 227.7924707 394.03710938 227.17041016 C406.37389236 206.12422757 406.37389236 206.12422757 409.71875 182.69921875 C408.37611773 178.00883891 405.68833661 175.16771137 401.7265625 172.4375 C397.5150608 170.21710942 393.07142732 168.65032727 388.5480957 167.17919922 C384.42795003 165.78918724 382.18357336 164.78129939 380 161 C379.60559082 158.35072327 379.60559082 158.35072327 379.58007812 155.30102539 C379.56416626 154.15626236 379.54825439 153.01149933 379.53186035 151.83204651 C379.53155823 149.98352333 379.53155823 149.98352333 379.53125 148.09765625 C379.52363647 146.8278038 379.51602295 145.55795135 379.50817871 144.24961853 C379.49737105 141.56363657 379.49315899 138.8785345 379.49902344 136.19262695 C379.50491888 132.75791921 379.47433246 129.32462539 379.43390656 125.89019108 C379.40177653 122.6052061 379.40614587 119.32027412 379.40625 116.03515625 C379.38985474 114.8048317 379.37345947 113.57450714 379.35656738 112.30690002 C379.42551125 103.80199457 379.42551125 103.80199457 382.30322266 99.78466797 C384.49387057 98.33494533 386.25525687 97.18577651 388.7421875 96.41015625 C389.4129834 96.18634277 390.0837793 95.9625293 390.77490234 95.73193359 C391.46793457 95.51102051 392.1609668 95.29010742 392.875 95.0625 C399.59881455 92.73403131 405.11209525 90.49448658 409.14453125 84.21875 C411.35226246 78.49276221 410.77670823 71.17478305 408.75 65.5 C405.20126718 60.39903185 405.20126718 60.39903185 400.625 56.25 C395.07682343 51.49442009 391.2873318 45.20905808 390 38 C389.79685181 36.97156982 389.79685181 36.97156982 389.58959961 35.92236328 C389.30168697 33.35507184 389.31177273 31.50041703 390 29 C392.87432966 26.05373216 396.32838161 24.30155182 399.9375 22.375 C402.03571732 21.18458215 404.13335221 19.99313724 406.23046875 18.80078125 C407.33310059 18.18799316 408.43573242 17.57520508 409.57177734 16.94384766 C413.09424527 14.94656169 416.54599963 12.86147533 419.98828125 10.73046875 C421.12959152 10.02742996 422.2709484 9.32446683 423.41235352 8.62158203 C425.61440869 7.26307619 427.81417213 5.90084765 430.01147461 4.53466797 C431.01315674 3.9263916 432.01483887 3.31811523 433.046875 2.69140625 C434.37477051 1.87458374 434.37477051 1.87458374 435.72949219 1.04125977 C438 0 438 0 441 1 C442.67869431 3.55743321 444.17145097 6.06741105 445.625 8.75 C446.28205933 9.95305786 446.28205933 9.95305786 446.95239258 11.18041992 C458.62802675 32.99945832 466.99933725 56.77561908 472 81 C472.19754883 81.94439941 472.39509766 82.88879883 472.59863281 83.86181641 C478.52754946 113.68591675 479.24123269 148.20133828 473 178 C472.70198486 179.46228027 472.70198486 179.46228027 472.39794922 180.95410156 C462.27732806 229.3359774 440.3608123 273.32428269 406 309 C405.36787598 309.65935547 404.73575195 310.31871094 404.08447266 310.99804688 C394.94002521 320.48630305 385.64265991 329.2262044 375 337 C373.84894983 337.85806152 372.69790823 338.71613451 371.546875 339.57421875 C363.35724019 345.61177396 354.85461724 350.99457302 346 356 C345.29278809 356.4021875 344.58557617 356.804375 343.85693359 357.21875 C320.72154164 370.2441741 295.55037591 378.99301461 269.5625 384.3125 C268.84360596 384.45985596 268.12471191 384.60721191 267.3840332 384.7590332 C252.70839502 387.54840125 238.18331162 388.34892619 223.27270508 388.31567383 C220.33311513 388.3125221 217.3945442 388.33604926 214.45507812 388.36132812 C201.08193808 388.40598737 188.18583289 387.20051542 175 385 C173.29444946 384.71781616 173.29444946 384.71781616 171.55444336 384.42993164 C128.28697241 376.65794532 87.23706784 356.67095309 54 328 C53.25492187 327.36578125 52.50984375 326.7315625 51.7421875 326.078125 C38.23720167 314.26698485 25.56581257 301.51639772 15 287 C14.14350934 285.85005169 13.28673567 284.70031411 12.4296875 283.55078125 C6.38965791 275.36065742 1.00632386 266.85620382 -4 258 C-4.4021875 257.29278809 -4.804375 256.58557617 -5.21875 255.85693359 C-18.2441741 232.72154164 -26.99301461 207.55037591 -32.3125 181.5625 C-32.45985596 180.84360596 -32.60721191 180.12471191 -32.7590332 179.3840332 C-35.71007758 163.85777101 -36.40852816 148.45658515 -36.375 132.6875 C-36.37412384 131.67698578 -36.37324768 130.66647156 -36.37234497 129.62533569 C-36.25693288 89.14604332 -27.28635829 49.78831554 -8 14 C-7.32603049 12.7243767 -6.65285424 11.44833396 -5.98046875 10.171875 C-1.25200538 1.25200538 -1.25200538 1.25200538 0 0 Z " fill="#9f9f9f" transform="translate(36,124)"/>
<path d="M0 0 C2.94846068 0.00314748 5.8959015 -0.02035196 8.84423828 -0.0456543 C22.23420356 -0.09027055 35.14581187 1.11142326 48.34814453 3.31567383 C50.05357422 3.59785767 50.05357422 3.59785767 51.79345703 3.88574219 C95.24213107 11.68959327 136.70124277 31.74247675 169.77563477 60.93164062 C170.91238381 61.93214216 172.05602237 62.92483432 173.20385742 63.91259766 C185.92927137 74.90081748 197.30298541 86.84872357 207.34814453 100.31567383 C209.29272633 102.73187652 211.24211904 105.14365666 213.20361328 107.54614258 C214.34814453 109.31567383 214.34814453 109.31567383 214.34814453 112.31567383 C212.7253418 113.61157227 212.7253418 113.61157227 210.41455078 114.92504883 C209.54934814 115.42560791 208.68414551 115.92616699 207.79272461 116.44189453 C206.84163818 116.9777417 205.89055176 117.51358887 204.91064453 118.06567383 C202.90462942 119.21921989 200.89945501 120.37422887 198.89501953 121.53051758 C197.83347656 122.14008301 196.77193359 122.74964844 195.67822266 123.37768555 C192.2354938 125.38123259 188.82661275 127.43282438 185.42626953 129.50708008 C184.85927841 129.85203522 184.29228729 130.19699036 183.70811462 130.55239868 C180.93078712 132.24250417 178.1569231 133.93791348 175.38745117 135.64086914 C174.38061279 136.2515625 173.37377441 136.86225586 172.33642578 137.49145508 C171.44479736 138.03713135 170.55316895 138.58280762 169.63452148 139.14501953 C167.34814453 140.31567383 167.34814453 140.31567383 164.34814453 140.31567383 C162.50830078 138.14770508 162.50830078 138.14770508 160.41064453 135.12817383 C155.66656324 128.50815521 150.32463528 122.60542075 144.69824219 116.72875977 C143.55383478 115.53096047 142.42395389 114.3193083 141.29736328 113.10473633 C131.18033129 102.48943509 118.72324906 94.06606146 106.34814453 86.31567383 C105.44902344 85.74768066 105.44902344 85.74768066 104.53173828 85.16821289 C62.12111416 58.76462239 8.67535282 51.57981762 -39.73535156 62.08251953 C-56.8917646 66.08889485 -73.23006391 71.7956347 -88.65185547 80.31567383 C-89.99772962 81.03402182 -91.3440946 81.75145086 -92.69091797 82.46801758 C-117.71809197 95.96440957 -142.50764086 115.95324163 -157.65185547 140.31567383 C-162.99441263 139.82415857 -166.95471118 136.95054515 -171.40185547 134.19067383 C-173.17245894 133.10956812 -174.94330463 132.02885902 -176.71435547 130.94848633 C-177.66181641 130.36744141 -178.60927734 129.78639648 -179.58544922 129.18774414 C-185.16969934 125.77850609 -190.78840421 122.42651697 -196.40185547 119.06567383 C-198.5634518 117.76902885 -200.72492184 116.4721733 -202.88623047 115.17504883 C-203.80629883 114.62300781 -204.72636719 114.0709668 -205.67431641 113.50219727 C-206.3269043 113.11064453 -206.97949219 112.7190918 -207.65185547 112.31567383 C-206.80163241 108.2436388 -204.82672464 105.58512652 -202.27685547 102.37817383 C-201.6009436 101.51893311 -201.6009436 101.51893311 -200.91137695 100.64233398 C-199.50027954 98.85961261 -198.07705676 97.08713007 -196.65185547 95.31567383 C-195.44335938 93.79393555 -195.44335938 93.79393555 -194.21044922 92.24145508 C-182.5030659 77.93243102 -169.31142919 64.47690795 -154.35546875 53.56616211 C-152.56930957 52.25508339 -150.81128062 50.91151914 -149.05419922 49.56176758 C-140.64451 43.16333269 -131.89479174 37.61852493 -122.67919922 32.45483398 C-120.81619338 31.40801495 -118.96801908 30.33888502 -117.12060547 29.26489258 C-92.18046694 15.25010753 -63.86139116 6.58650844 -35.65185547 2.31567383 C-34.53375488 2.13834717 -33.4156543 1.96102051 -32.26367188 1.77832031 C-21.50231249 0.23401232 -10.86244537 -0.02412288 0 0 Z " fill="#9f9f9f" transform="translate(252.65185546875,-0.315673828125)"/>
<path d="M0 0 C2.44225447 1.66159248 4.74768159 3.38773224 7.0390625 5.25 C7.87050781 5.87261719 8.70195312 6.49523437 9.55859375 7.13671875 C19.05044396 15.22347618 25.93055669 28.5268711 27.34448242 40.92895508 C27.47509122 43.66825685 27.50687887 46.38281242 27.4765625 49.125 C27.46898926 50.09026611 27.46141602 51.05553223 27.45361328 52.05004883 C27.28448548 59.3799489 26.27331992 65.60180419 23.0390625 72.25 C22.58015625 73.21164062 22.12125 74.17328125 21.6484375 75.1640625 C13.91897924 90.25684678 1.74462952 98.78970206 -14.12109375 104.359375 C-26.20509403 107.16217466 -40.75813646 106.70001132 -51.9609375 101.25 C-52.92257813 100.79109375 -53.88421875 100.3321875 -54.875 99.859375 C-69.96778428 92.12991674 -78.50063956 79.95556702 -84.0703125 64.08984375 C-86.87311216 52.00584347 -86.41094882 37.45280104 -80.9609375 26.25 C-80.50203125 25.28835937 -80.043125 24.32671875 -79.5703125 23.3359375 C-71.84651061 8.25419803 -59.66331626 -0.32293942 -43.7890625 -5.85546875 C-29.15360965 -9.27538579 -12.98077044 -7.67201208 0 0 Z M-53.9609375 29.25 C-59.91777925 38.02226447 -60.76954715 45.71529681 -59.9609375 56.25 C-57.77715935 65.49674063 -52.80195649 71.68138233 -44.8359375 76.625 C-36.97551838 81.20412267 -27.91230976 81.65551976 -19.06640625 79.56640625 C-9.18287964 75.90752774 -3.5652748 69.61318257 1.0390625 60.25 C3.81372827 52.1109804 2.90842953 42.10436893 -0.7109375 34.42578125 C-5.0469305 26.87844344 -11.51596476 21.4471498 -19.8515625 18.60546875 C-33.14312456 16.3655944 -44.92354456 18.96745515 -53.9609375 29.25 Z " fill="#9f9f9f" transform="translate(284.9609375,206.75)"/>
<path d="M0 0 C-1.33998268 2.98568956 -2.83392382 4.9947834 -5.125 7.3125 C-18.83518629 22.74003739 -22.14835838 41.43926419 -21.20654297 61.41748047 C-20.86242218 65.72021067 -19.98837761 69.67940803 -18.65625 73.79296875 C-18 76 -18 76 -18 80 C-25.75104841 80.43500425 -33.50254801 80.86119894 -41.25439453 81.28173828 C-43.88248154 81.42469532 -46.51034234 81.57074884 -49.13818359 81.71826172 C-52.9512314 81.93195521 -56.76461724 82.13844692 -60.578125 82.34375 C-61.72170471 82.40937134 -62.86528442 82.47499268 -64.04351807 82.54260254 C-74.40405501 83.08861673 -84.57268085 83 -95 83 C-95 62.21 -95 41.42 -95 20 C-71.87058662 15.0086815 -71.87058662 15.0086815 -62.0390625 12.890625 C-55.32070723 11.44324259 -48.60245226 9.9954049 -41.88476562 8.54492188 C-36.47112233 7.37603707 -31.05705428 6.2091393 -25.64268112 5.04364014 C-23.57319133 4.59779156 -21.50385775 4.15121733 -19.43468094 3.70391846 C-16.54491285 3.07935792 -13.65460887 2.4573393 -10.76416016 1.8359375 C-9.90173203 1.64892273 -9.03930389 1.46190796 -8.15074158 1.26922607 C-2.22810432 0 -2.22810432 0 0 0 Z " fill="#9f9f9f" transform="translate(207,203)"/>
<path d="M0 0 C10.54368964 1.58362084 20.91829612 3.85642415 31.328125 6.1328125 C33.17179967 6.5337714 35.0155303 6.93447303 36.85931396 7.33493042 C41.67330941 8.38121141 46.48654473 9.43094794 51.29962158 10.48144531 C57.09540359 11.74565693 62.89213554 13.00550499 68.68870544 14.26609802 C77.45986285 16.17408578 86.22980757 18.08755716 95 20 C95 40.79 95 61.58 95 83 C84.93846514 83 75.00443914 82.85854681 64.97265625 82.34375 C63.60405532 82.27616826 62.23543818 82.20891426 60.86680603 82.14196777 C57.32076578 81.96765661 53.77495876 81.78899324 50.22918701 81.60931396 C46.58847258 81.42563218 42.94754792 81.24621719 39.30664062 81.06640625 C32.20421987 80.71503214 25.10203751 80.35904395 18 80 C18.5126586 76.19056997 19.06813394 72.4740333 20.03515625 68.75390625 C24.32877125 49.83879151 20.35145797 31.59954911 10.98046875 14.98828125 C8.27755278 10.90991692 5.1425055 7.41414167 1.72265625 3.92578125 C0 2 0 2 0 0 Z " fill="#9f9f9f" transform="translate(305,203)"/>
<path d="M0 0 C2.97 0.99 5.94 1.98 9 3 C25.65350465 7.93906222 41.06517388 7.93046877 57.51171875 1.90234375 C60 1 60 1 64 0 C64 26.4 64 52.8 64 80 C42.88 80 21.76 80 0 80 C0 53.6 0 27.2 0 0 Z " fill="#9f9f9f" transform="translate(224,320)"/>
<path d="M0 0 C4.8846525 2.26787438 7.73212562 5.1153475 10 10 C10.75381535 15.5997712 10.77303575 20.33499991 8.375 25.5 C3.80134327 30.3143755 0.6912538 32.25156236 -6 32.5 C-12.6912538 32.25156236 -15.80134327 30.3143755 -20.375 25.5 C-22.77303575 20.33499991 -22.75381535 15.5997712 -22 10 C-17.52212837 0.3553534 -9.85292056 -1.32635469 0 0 Z " fill="#9f9f9f" transform="translate(262,240)"/>
</svg>
