<svg width="28" height="28" viewBox="0 0 28 28" fill="none" xmlns="http://www.w3.org/2000/svg"><path d="M23.3947 18.8346H6.64074H2.37979C1.47081 18.8346 0.733887 18.0977 0.733887 17.1887V8.59951C0.733887 7.69054 1.47076 6.95361 2.37979 6.95361H23.3947C24.3036 6.95361 25.0406 7.69048 25.0406 8.59951V17.1887C25.0406 18.0976 24.3037 18.8346 23.3947 18.8346Z" fill="#F2DE72"></path><path d="M5.59408 21.1318C6.84778 21.1318 7.8641 20.1155 7.8641 18.8618C7.8641 17.6081 6.84778 16.5918 5.59408 16.5918C4.34039 16.5918 3.32407 17.6081 3.32407 18.8618C3.32407 20.1155 4.34039 21.1318 5.59408 21.1318Z" fill="white"></path><path d="M19.7126 21.1318C20.9662 21.1318 21.9826 20.1155 21.9826 18.8618C21.9826 17.6081 20.9662 16.5918 19.7126 16.5918C18.4589 16.5918 17.4425 17.6081 17.4425 18.8618C17.4425 20.1155 18.4589 21.1318 19.7126 21.1318Z" fill="white"></path><path d="M25.0032 12.4345H0.733887V8.16405C0.733887 7.47492 1.29255 6.91626 1.98168 6.91626H23.7554C24.4446 6.91626 25.0032 7.47492 25.0032 8.16405V12.4345Z" fill="white"></path><path d="M26.2119 9.15765H25.6804V8.54922C25.6804 7.3132 24.6748 6.30762 23.4388 6.30762H15.2709C14.9615 6.30762 14.7105 6.55851 14.7105 6.86802C14.7105 7.17753 14.9615 7.42842 15.2709 7.42842H23.4388C24.0568 7.42842 24.5596 7.93121 24.5596 8.54922V11.8743H16.7924V9.19536C16.7924 8.88585 16.5415 8.63496 16.232 8.63496C15.9226 8.63496 15.6716 8.88585 15.6716 9.19536V11.8743H10.1421V9.19536C10.1421 8.88585 9.89119 8.63496 9.58174 8.63496C9.27229 8.63496 9.02134 8.88585 9.02134 9.19536V11.8743H1.1208V8.54922C1.1208 7.93121 1.62359 7.42842 2.2416 7.42842H10.2553C10.5648 7.42842 10.8157 7.17753 10.8157 6.86802C10.8157 6.55851 10.5648 6.30762 10.2553 6.30762H2.2416C1.00558 6.30762 0 7.3132 0 8.54922V17.2332C0 18.4692 1.00558 19.4748 2.2416 19.4748H2.83132C3.11224 20.7417 4.24392 21.6923 5.59409 21.6923C6.94427 21.6923 8.076 20.7417 8.35687 19.4748H16.9497C17.2307 20.7417 18.3623 21.6923 19.7125 21.6923C21.0627 21.6923 22.1944 20.7417 22.4753 19.4748H23.3019C24.6133 19.4748 25.6803 18.4081 25.6803 17.097V10.2785H26.2118C26.5797 10.2785 26.879 10.5778 26.879 10.9457V12.3336C26.879 12.6431 27.13 12.894 27.4394 12.894C27.7489 12.894 27.9998 12.6431 27.9998 12.3336V10.9457C28 9.95981 27.1978 9.15765 26.2119 9.15765ZM5.59409 20.5715C4.65144 20.5715 3.88448 19.8045 3.88448 18.8618C3.88448 17.9191 4.65144 17.1522 5.59409 17.1522C6.53674 17.1522 7.30371 17.9191 7.30371 18.8618C7.30371 19.8045 6.5368 20.5715 5.59409 20.5715ZM19.7126 20.5715C18.7699 20.5715 18.0029 19.8045 18.0029 18.8618C18.0029 17.9191 18.7699 17.1522 19.7126 17.1522C20.6552 17.1522 21.4222 17.9191 21.4222 18.8618C21.4222 19.8045 20.6552 20.5715 19.7126 20.5715ZM23.302 18.354H22.4965C22.2564 17.0349 21.0998 16.0315 19.7126 16.0315C18.3253 16.0315 17.1688 17.035 16.9287 18.354H8.378C8.13792 17.0349 6.98137 16.0315 5.59409 16.0315C4.20682 16.0315 3.05032 17.035 2.81019 18.354H2.2416C1.62359 18.354 1.1208 17.8512 1.1208 17.2332V12.9951H24.5596V17.097C24.5596 17.7901 23.9955 18.354 23.302 18.354Z" fill="#595959"></path><path d="M5.58945 19.4409C5.89895 19.4409 6.14986 19.19 6.14986 18.8805C6.14986 18.571 5.89895 18.3201 5.58945 18.3201C5.27995 18.3201 5.02905 18.571 5.02905 18.8805C5.02905 19.19 5.27995 19.4409 5.58945 19.4409Z" fill="#595959"></path><path d="M19.7162 19.4409C20.0257 19.4409 20.2766 19.19 20.2766 18.8805C20.2766 18.571 20.0257 18.3201 19.7162 18.3201C19.4067 18.3201 19.1558 18.571 19.1558 18.8805C19.1558 19.19 19.4067 19.4409 19.7162 19.4409Z" fill="#595959"></path><path d="M12.7211 7.43013C13.0306 7.43013 13.2815 7.17923 13.2815 6.86973C13.2815 6.56023 13.0306 6.30933 12.7211 6.30933C12.4116 6.30933 12.1607 6.56023 12.1607 6.86973C12.1607 7.17923 12.4116 7.43013 12.7211 7.43013Z" fill="#595959"></path><path d="M14.9767 14.0972H8.32914C8.01969 14.0972 7.76874 14.3481 7.76874 14.6576C7.76874 14.9671 8.01969 15.218 8.32914 15.218H14.9767C15.2862 15.218 15.5371 14.9671 15.5371 14.6576C15.5371 14.3481 15.2862 14.0972 14.9767 14.0972Z" fill="#595959"></path><path d="M17.4752 15.229C17.7847 15.229 18.0356 14.9781 18.0356 14.6686C18.0356 14.3591 17.7847 14.1082 17.4752 14.1082C17.1657 14.1082 16.9148 14.3591 16.9148 14.6686C16.9148 14.9781 17.1657 15.229 17.4752 15.229Z" fill="#595959"></path></svg>