<svg width="7" height="11" viewBox="0 0 7 11" fill="none" xmlns="http://www.w3.org/2000/svg"><path d="M6.60711 3.57014C6.49573 3.67442 6.35397 3.72656 6.18183 3.72656C6.00969 3.72656 5.86792 3.67442 5.75654 3.57014L3.38709 1.35172L1.01765 3.57014C0.906263 3.67442 0.764501 3.72656 0.592362 3.72656C0.420222 3.72656 0.27846 3.67442 0.167076 3.57014C0.0556919 3.46585 4.69169e-09 3.33313 6.61359e-09 3.17196C8.53549e-09 3.01079 0.0556919 2.87806 0.167076 2.77378L2.96181 0.157184C3.02256 0.100302 3.08838 0.0599151 3.15926 0.0360244C3.23014 0.012513 3.30609 0.000757018 3.38709 0.000757019C3.4681 0.00075702 3.54404 0.012513 3.61492 0.0360244C3.68581 0.0599151 3.75162 0.100302 3.81238 0.157184L6.60711 2.77378C6.71849 2.87806 6.77419 3.01079 6.77419 3.17196C6.77419 3.33313 6.71849 3.46585 6.60711 3.57014Z" fill="#202020"></path><path d="M0.166327 6.92986C0.277711 6.82558 0.419472 6.77344 0.591612 6.77344C0.763751 6.77344 0.905513 6.82558 1.0169 6.92986L3.38634 9.14828L5.75579 6.92986C5.86717 6.82558 6.00894 6.77344 6.18108 6.77344C6.35322 6.77344 6.49498 6.82558 6.60636 6.92986C6.71775 7.03415 6.77344 7.16687 6.77344 7.32804C6.77344 7.48921 6.71775 7.62194 6.60636 7.72622L3.81163 10.3428C3.75087 10.3997 3.68506 10.4401 3.61418 10.464C3.54329 10.4875 3.46735 10.4992 3.38634 10.4992C3.30534 10.4992 3.22939 10.4875 3.15851 10.464C3.08763 10.4401 3.02181 10.3997 2.96106 10.3428L0.166327 7.72622C0.0549426 7.62193 -0.000750096 7.48921 -0.000750089 7.32804C-0.000750082 7.16687 0.0549426 7.03415 0.166327 6.92986Z" fill="#202020"></path></svg>
