<svg width="23" height="23" viewBox="0 0 23 23" fill="none" xmlns="http://www.w3.org/2000/svg"><g clip-path="url(#clip0_6213_4813)"><path d="M4.14508 5.29427V2.75903H17.8051C18.3849 2.75903 18.855 3.2291 18.855 3.80894V21.4875C18.855 22.0674 18.3849 22.5374 17.8051 22.5374H4.14508V9.41118" fill="#F2DE72"></path><path d="M4.14508 2.75892L15.7459 0.482402C16.3945 0.355101 16.9979 0.851675 16.9979 1.51265V2.74994" fill="white"></path><path d="M11.5 15.517C14.1229 15.517 16.2491 13.3908 16.2491 10.7679C16.2491 8.14505 14.1229 6.0188 11.5 6.0188C8.87717 6.0188 6.75092 8.14505 6.75092 10.7679C6.75092 13.3908 8.87717 15.517 11.5 15.517Z" fill="white"></path><path d="M17.805 2.29641H17.4605V1.51271C17.4605 1.05884 17.2595 0.633174 16.909 0.344805C16.5586 0.0564356 16.1023 -0.0587917 15.6568 0.0285424L4.05598 2.30506C3.84245 2.346 3.6825 2.54203 3.6825 2.75898V5.29422C3.6825 5.5497 3.88964 5.75679 4.14507 5.75679C4.4005 5.75679 4.60764 5.5497 4.60764 5.29422V3.22156H17.805C18.1289 3.22156 18.3924 3.48504 18.3924 3.80889V21.4875C18.3924 21.8113 18.1289 22.0748 17.805 22.0748H4.60764V9.41113C4.60764 9.15565 4.4005 8.94856 4.14507 8.94856C3.88964 8.94856 3.6825 9.15565 3.6825 9.41113V22.5374C3.6825 22.7929 3.88964 23 4.14507 23H17.805C18.639 23 19.3175 22.3215 19.3175 21.4875V3.80889C19.3175 2.97491 18.639 2.29641 17.805 2.29641ZM15.8349 0.936392C16.0077 0.902439 16.1851 0.947216 16.3212 1.05921C16.4573 1.17119 16.5354 1.33652 16.5354 1.51276V2.29641H8.9045L15.8349 0.936392Z" fill="#595959"></path><path d="M11.5 5.5564C8.62628 5.5564 6.28833 7.89434 6.28833 10.7681C6.28833 13.6418 8.62628 15.9798 11.5 15.9798C14.3738 15.9798 16.7117 13.6418 16.7117 10.7681C16.7117 7.89434 14.3738 5.5564 11.5 5.5564ZM11.9014 13.7632C11.7605 14.4576 11.601 14.8181 11.5 14.9768C11.399 14.8181 11.2395 14.4576 11.0987 13.7632C10.9305 12.9338 10.8379 11.8702 10.8379 10.7681C10.8379 9.666 10.9305 8.60236 11.0987 7.77301C11.2395 7.07859 11.399 6.71811 11.5 6.5594C11.601 6.71811 11.7605 7.07859 11.9014 7.77301C12.0695 8.60236 12.1621 9.66605 12.1621 10.7681C12.1621 11.8701 12.0695 12.9338 11.9014 13.7632ZM10.3345 6.99542C10.3068 7.09307 10.2802 7.19562 10.2547 7.3034C10.0342 8.23429 9.91283 9.46474 9.91283 10.7681C9.91283 12.0715 10.0342 13.302 10.2547 14.2328C10.2802 14.3406 10.3068 14.4431 10.3345 14.5408C9.54967 13.8087 9.0029 12.3747 9.0029 10.7681C9.0029 9.16157 9.54967 7.72754 10.3345 6.99542ZM12.6656 14.5408C12.6933 14.4431 12.7199 14.3406 12.7454 14.2328C12.9659 13.3019 13.0873 12.0715 13.0873 10.7681C13.0873 9.46474 12.9659 8.23429 12.7454 7.3034C12.7199 7.19562 12.6933 7.09307 12.6656 6.99542C13.4504 7.72754 13.9972 9.16157 13.9972 10.7681C13.9972 12.3747 13.4504 13.8087 12.6656 14.5408ZM7.21348 10.7681C7.21348 9.38286 7.87418 8.14922 8.89674 7.36506C8.36742 8.30724 8.07771 9.50517 8.07771 10.7681C8.07771 12.031 8.36742 13.2289 8.89674 14.1711C7.87418 13.387 7.21348 12.1534 7.21348 10.7681ZM14.1033 14.1711C14.6326 13.2289 14.9223 12.031 14.9223 10.7681C14.9223 9.50517 14.6326 8.30724 14.1033 7.36506C15.1259 8.14922 15.7866 9.38286 15.7866 10.7681C15.7866 12.1534 15.1259 13.387 14.1033 14.1711Z" fill="#595959"></path><path d="M5.97998 19.4181C5.97998 19.6736 6.18712 19.8807 6.44256 19.8807H14.4489C14.7044 19.8807 14.9115 19.6736 14.9115 19.4181C14.9115 19.1627 14.7044 18.9556 14.4489 18.9556H6.44256C6.18712 18.9556 5.97998 19.1627 5.97998 19.4181Z" fill="#595959"></path><path d="M4.14507 7.80747C4.40054 7.80747 4.60764 7.60037 4.60764 7.3449C4.60764 7.08943 4.40054 6.88232 4.14507 6.88232C3.8896 6.88232 3.6825 7.08943 3.6825 7.3449C3.6825 7.60037 3.8896 7.80747 4.14507 7.80747Z" fill="#595959"></path><path d="M16.542 19.8768C16.7975 19.8768 17.0046 19.6697 17.0046 19.4142C17.0046 19.1588 16.7975 18.9517 16.542 18.9517C16.2866 18.9517 16.0795 19.1588 16.0795 19.4142C16.0795 19.6697 16.2866 19.8768 16.542 19.8768Z" fill="#595959"></path></g></svg>